M48
;Layer_Color=9474304
;FILE_FORMAT=2:5
INCH,LZ
;TYPE=PLATED
T1F00S00C0.00787
T2F00S00C0.01181
T3F00S00C0.01968
T4F00S00C0.03150
T5F00S00C0.03425
T6F00S00C0.03543
T7F00S00C0.03937
T9F00S00C0.04331
T11F00S00C0.05118
T12F00S00C0.06890
;TYPE=NON_PLATED
T13F00S00C0.08268
%
T01
X00606Y0054864
X0067825
X0071437Y0058476
Y0065701
X0067825Y0069313
Y0062089
X0064213Y0065701
Y0058476
X00606Y0062089
Y0069313
X0056988Y0065701
Y0058476
T02
X003Y001
Y0014
Y0018
X00435Y00125
X00425Y001
X00445
X0070169Y0008169
X0063617Y0024383
X0123Y00305
X0198Y00314
Y00268
Y00222
X0214469Y0028016
X03115Y0023
Y002
Y0017
X0329899Y0006716
X035081
X0347267Y0023523
X035117Y002993
X03465Y00496
X03466Y00524
X03441Y0051
X0331734Y0054034
X0316Y0047905
X0313
X0319619Y0072881
X0302Y0073
Y00705
X03Y0088
X03086Y009254
X0309Y0099
X03112
X03195Y0114
Y0116
Y0118
X0272Y0146
X02615Y0148
X0259Y01415
X0254851Y0154125
X02545Y01645
X0250136Y016478
X0246636Y0187
X02345Y0176
X02155Y0173
X02135Y01705
X02227Y01646
X02215Y01435
X02155
X0244783Y0137263
X0275009Y0166009
X0285039Y0172047
X0287677
X0239Y00485
X0236
X0233
X0220866Y0048291
Y0039039
X0238954Y0032791
X0213862Y0057563
X0213779Y0060118
X0198Y00452
Y00406
Y0036
X017Y00735
X01665
X01625
X0125Y0076
X0110369Y0043525
X0102Y0126
Y01295
Y01355
X011Y0151
X0115
X012351Y012949
X0125Y0127
X0122
X0147
Y0131
Y01345
Y01385
X01515
Y01345
Y0131
Y0127
X018613Y010687
X0204Y0112
X02085Y0113
X0208Y01265
X02065Y0135
X0207Y01545
X01995Y01515
X021Y0187
X0144Y0181
X0139
X0134
X0129
X0109Y0182
Y01785
Y01755
X007Y0175
Y018
X006
X00575Y0175
X00625
X0057087Y0151181
X0064185Y0132685
X0053452Y014146
X0054331Y0151181
X0051575
X0049685Y0108315
X0054685Y0106179
X00275Y01075
X0046Y0222
Y0226
Y023
X00725Y02025
X0075Y02
Y0205
X0109
Y0201
Y0209
Y0213
X02085
X0209Y0197
X02115
X0185039Y0275984
Y0279528
X0231211Y0277738
X02565Y02705
X0259Y0271
X0277165Y027559
Y0279134
X0263Y02135
X02692Y0194326
X0282247Y01915
X02445Y0189
X0236488Y02
X02165Y0197
X0214
X02175Y0213
T03
X0341732Y0096752
Y0110925
X0327559
T04
X0015249Y0129243
X0029168Y0143163
T05
X0276476Y0013976
Y0019882
Y0025787
Y0031693
X0302461Y003002
Y0024114
Y0018209
Y0035925
Y0041831
Y0047736
X0276476Y0043504
Y0037598
T06
X0088869Y0007185
X010068
T07
X0150521Y0097371
X016444Y011129
X0033465Y0279528
X001378
Y0322688
X0033465
X0072835Y0335326
X0151575
X013189Y0256586
X009252
T09
X0169291Y0372047
X0051181
T11
X0190315Y0286842
Y0326842
X0242382
Y0286842
X0220315
X0272382
Y0346842
X0242382Y0356842
X0220315Y0346842
X0190315Y0356842
T12
X0218366Y0372047
X0250433
X0270433
X0198366
X0023622Y0378268
Y0358268
T13
X0162992Y0014665
X0010881Y020077
M30
