G04*
G04 #@! TF.GenerationSoftware,Altium Limited,Altium Designer,22.7.1 (60)*
G04*
G04 Layer_Physical_Order=4*
G04 Layer_Color=16711680*
%FSLAX25Y25*%
%MOIN*%
G70*
G04*
G04 #@! TF.SameCoordinates,8F3D338C-3F21-4459-BB37-C929D6ECBF1C*
G04*
G04*
G04 #@! TF.FilePolarity,Positive*
G04*
G01*
G75*
%ADD10C,0.00787*%
%ADD11C,0.01968*%
%ADD14C,0.00394*%
%ADD16C,0.01575*%
%ADD17C,0.00591*%
%ADD18C,0.01000*%
%ADD20C,0.00866*%
%ADD21C,0.04000*%
%ADD22C,0.03500*%
%ADD23C,0.05000*%
%ADD49R,0.04331X0.02362*%
%ADD66C,0.08268*%
%ADD74R,0.03800X0.03100*%
%ADD75R,0.02756X0.05118*%
%ADD80R,0.05118X0.02756*%
%ADD83R,0.03100X0.03800*%
%ADD105C,0.03000*%
%ADD106C,0.01473*%
%ADD107C,0.02000*%
%ADD108C,0.01100*%
%ADD109C,0.01200*%
%ADD110C,0.01500*%
%ADD111C,0.02500*%
%ADD115O,0.06693X0.04724*%
%ADD116C,0.03937*%
%ADD117C,0.01181*%
%ADD118C,0.11811*%
%ADD119O,0.14173X0.07087*%
%ADD120O,0.15748X0.07874*%
%ADD121O,0.07874X0.15748*%
%ADD122C,0.07874*%
%ADD123C,0.09843*%
%ADD124O,0.07087X0.14173*%
%ADD125C,0.01772*%
%ADD126C,0.01968*%
%ADD162R,0.04646X0.02284*%
%ADD163R,0.06299X0.03543*%
%ADD164R,0.03543X0.06299*%
%ADD165C,0.07000*%
G36*
X287096Y174628D02*
X286812Y174338D01*
X285596Y173750D01*
X285395Y173833D01*
X284684D01*
X284028Y173561D01*
X283525Y173059D01*
X283254Y172403D01*
Y171692D01*
X283453Y171209D01*
Y165686D01*
Y163175D01*
X283090D01*
X282969Y163151D01*
X282366Y163072D01*
X281692Y162792D01*
X281113Y162348D01*
X280668Y161769D01*
X280389Y161094D01*
X280293Y160371D01*
X280389Y159647D01*
X280668Y158972D01*
X281113Y158393D01*
X281692Y157949D01*
X282366Y157669D01*
X282969Y157590D01*
X283090Y157566D01*
X283453D01*
Y157025D01*
Y129348D01*
X215809Y61704D01*
X214617D01*
X214135Y61904D01*
X213424D01*
X212768Y61632D01*
X212266Y61130D01*
X211994Y60473D01*
Y59763D01*
X212266Y59106D01*
X212573Y58799D01*
X212348Y58574D01*
X212076Y57918D01*
Y57208D01*
X212348Y56551D01*
X212850Y56049D01*
X213507Y55777D01*
X214217D01*
X214501Y55894D01*
X217524D01*
X218163Y56021D01*
X218704Y56383D01*
X285710Y123389D01*
X287096Y122815D01*
Y1427D01*
X120117D01*
Y28897D01*
X121007Y29281D01*
X121617Y29357D01*
X121988Y28986D01*
X122645Y28714D01*
X123355D01*
X124012Y28986D01*
X124047Y29022D01*
X142267D01*
X142504Y29069D01*
X142743Y29100D01*
X142785Y29125D01*
X142833Y29134D01*
X143034Y29268D01*
X143243Y29389D01*
X167123Y50362D01*
X167128Y50367D01*
X167128Y50367D01*
X167729Y50895D01*
X167967Y51121D01*
X168133Y51257D01*
X168212Y51354D01*
X169261Y52419D01*
X241703Y125975D01*
X251181Y135454D01*
X251502Y135933D01*
X251614Y136499D01*
Y153652D01*
X253065Y153770D01*
X253337Y153114D01*
X253337Y153114D01*
X253338Y153113D01*
X253839Y152611D01*
X254496Y152339D01*
X255206D01*
X255863Y152611D01*
X256365Y153114D01*
X256637Y153770D01*
Y154481D01*
X256365Y155137D01*
X255863Y155639D01*
X255206Y155911D01*
X254496D01*
X253839Y155639D01*
X253338Y155138D01*
X253337Y155137D01*
X253337Y155137D01*
X253065Y154481D01*
X251614Y154599D01*
Y163733D01*
X251650Y163768D01*
X251922Y164424D01*
Y165135D01*
X251650Y165791D01*
X251147Y166294D01*
X250491Y166565D01*
X249781D01*
X249614Y166497D01*
X248344Y167129D01*
X248114Y167375D01*
Y185953D01*
X248150Y185988D01*
X248422Y186645D01*
Y187355D01*
X248150Y188012D01*
X247647Y188514D01*
X246991Y188786D01*
X246286D01*
Y189355D01*
X246014Y190012D01*
X245512Y190514D01*
X244855Y190786D01*
X244145D01*
X243488Y190514D01*
X242986Y190012D01*
X242714Y189355D01*
Y188645D01*
X242986Y187988D01*
X243022Y187953D01*
Y153112D01*
X203695Y113786D01*
X203645D01*
X202988Y113514D01*
X202486Y113012D01*
X202214Y112355D01*
Y111645D01*
X202486Y110988D01*
X202988Y110486D01*
X203645Y110214D01*
X204355D01*
X205012Y110486D01*
X205514Y110988D01*
X205664Y111351D01*
X206048Y111536D01*
X206608Y111669D01*
X207286Y111689D01*
X207488Y111486D01*
X208145Y111214D01*
X208855D01*
X209512Y111486D01*
X210014Y111988D01*
X210286Y112645D01*
Y112695D01*
X222795Y125205D01*
X231795Y134205D01*
X231795Y134205D01*
X247157Y149567D01*
X248657Y148945D01*
Y137644D01*
X248069Y137181D01*
X247381Y137382D01*
X246478Y137838D01*
X246297Y138275D01*
X245795Y138777D01*
X245139Y139049D01*
X244428D01*
X243772Y138777D01*
X243269Y138275D01*
X242998Y137618D01*
Y136908D01*
X243269Y136251D01*
X243305Y136216D01*
Y134396D01*
X192388Y83478D01*
X131000D01*
X130434Y83366D01*
X129955Y83045D01*
X124695Y77786D01*
X124645D01*
X123988Y77514D01*
X123486Y77012D01*
X123214Y76355D01*
Y75645D01*
X123486Y74988D01*
X123988Y74486D01*
X124645Y74214D01*
X125355D01*
X126012Y74486D01*
X126514Y74988D01*
X126786Y75645D01*
Y75695D01*
X131612Y80522D01*
X190846D01*
X191425Y79138D01*
X167791Y55140D01*
X166517Y55984D01*
X166534Y56025D01*
X166686Y57185D01*
X166534Y58345D01*
X166086Y59426D01*
X165374Y60354D01*
X164445Y61066D01*
X163365Y61514D01*
X162205Y61667D01*
X155118D01*
X153958Y61514D01*
X152877Y61066D01*
X151949Y60354D01*
X151237Y59426D01*
X150789Y58345D01*
X150636Y57185D01*
X150789Y56025D01*
X151237Y54944D01*
X151949Y54016D01*
X152877Y53304D01*
X153958Y52856D01*
X155118Y52703D01*
X162205D01*
X163382Y51348D01*
X163403Y51031D01*
X141710Y31978D01*
X124047D01*
X124012Y32014D01*
X123355Y32286D01*
X122645D01*
X121988Y32014D01*
X121617Y31643D01*
X121007Y31719D01*
X120117Y32103D01*
Y97738D01*
X147762Y125383D01*
X148012Y125486D01*
X148407Y125881D01*
X149250Y125938D01*
X150093Y125881D01*
X150488Y125486D01*
X151145Y125214D01*
X151855D01*
X152512Y125486D01*
X153014Y125988D01*
X153286Y126645D01*
Y127355D01*
X153014Y128012D01*
X152972Y128053D01*
X152668Y129000D01*
X152972Y129947D01*
X153014Y129988D01*
X153286Y130645D01*
Y131355D01*
X153014Y132012D01*
X152633Y132750D01*
X153014Y133488D01*
X153286Y134145D01*
Y134855D01*
X153014Y135512D01*
X152972Y135553D01*
X152668Y136500D01*
X152972Y137447D01*
X153014Y137488D01*
X153286Y138145D01*
Y138855D01*
X153014Y139512D01*
X152512Y140014D01*
X151855Y140286D01*
X151145D01*
X150488Y140014D01*
X150093Y139619D01*
X149250Y139561D01*
X148407Y139619D01*
X148012Y140014D01*
X147355Y140286D01*
X146645D01*
X145988Y140014D01*
X145486Y139512D01*
X145214Y138855D01*
Y138145D01*
X145486Y137488D01*
X145528Y137447D01*
X145832Y136500D01*
X145528Y135553D01*
X145486Y135512D01*
X145214Y134855D01*
Y134145D01*
X145486Y133488D01*
X145867Y132750D01*
X145486Y132012D01*
X145214Y131355D01*
Y130645D01*
X145486Y129988D01*
X145528Y129947D01*
X145832Y129000D01*
X145528Y128053D01*
X145486Y128012D01*
X145383Y127762D01*
X121503Y103882D01*
X120117Y104456D01*
Y108016D01*
X103066D01*
X102492Y109401D01*
X143112Y150022D01*
X198314D01*
X198433Y149903D01*
X199125Y149616D01*
X199875D01*
X200567Y149903D01*
X201097Y150433D01*
X201384Y151125D01*
Y151875D01*
X202533Y153022D01*
X205814D01*
X205933Y152903D01*
X206625Y152616D01*
X207375D01*
X208067Y152903D01*
X208597Y153433D01*
X208884Y154125D01*
Y154875D01*
X208597Y155567D01*
X208067Y156097D01*
X207375Y156384D01*
X206625D01*
X205933Y156097D01*
X205814Y155978D01*
X143825D01*
X143204Y157478D01*
X186379Y200653D01*
X234502D01*
X234702Y200355D01*
Y199645D01*
X234974Y198988D01*
X235476Y198486D01*
X236132Y198214D01*
X236843D01*
X237499Y198486D01*
X238001Y198988D01*
X238273Y199645D01*
Y200355D01*
X238473Y200653D01*
X269967D01*
X273327Y197294D01*
Y166614D01*
X273223Y166364D01*
Y165654D01*
X273495Y164998D01*
X273998Y164495D01*
X274654Y164223D01*
X275364D01*
X276021Y164495D01*
X276523Y164998D01*
X276795Y165654D01*
Y166364D01*
X276692Y166614D01*
Y197991D01*
X276692Y197991D01*
X276564Y198635D01*
X276199Y199180D01*
X276199Y199180D01*
X271854Y203525D01*
X271308Y203890D01*
X270664Y204018D01*
X185682D01*
X185038Y203890D01*
X184493Y203525D01*
X115334Y134367D01*
X105087D01*
X103786Y135145D01*
Y135855D01*
X103514Y136512D01*
X103012Y137014D01*
X102355Y137286D01*
X101645D01*
X100988Y137014D01*
X100486Y136512D01*
X100214Y135855D01*
Y135145D01*
X98913Y134367D01*
X64790D01*
X64540Y134470D01*
X63829D01*
X63173Y134199D01*
X62671Y133696D01*
X62399Y133040D01*
Y132329D01*
X62671Y131673D01*
X63173Y131171D01*
X63829Y130899D01*
X64540D01*
X64790Y131002D01*
X99066D01*
X100214Y129855D01*
Y129145D01*
X100486Y128488D01*
X100867Y127750D01*
X100486Y127012D01*
X100214Y126355D01*
Y125645D01*
X100486Y124988D01*
X100988Y124486D01*
X101645Y124214D01*
X102355D01*
X103012Y124486D01*
X103514Y124988D01*
X103786Y125645D01*
Y126355D01*
X103514Y127012D01*
X103133Y127750D01*
X103514Y128488D01*
X103786Y129145D01*
Y129855D01*
X104934Y131002D01*
X114790D01*
X115411Y129502D01*
X95703Y109793D01*
X50732D01*
X50697Y109829D01*
X50040Y110101D01*
X49330D01*
X48673Y109829D01*
X48171Y109327D01*
X47899Y108670D01*
Y108016D01*
X2096D01*
X2096Y218404D01*
X2096Y236226D01*
X177096D01*
Y266226D01*
X226773D01*
Y228549D01*
X215662Y217438D01*
X208500D01*
X207351Y217287D01*
X206281Y216843D01*
X205362Y216138D01*
X204657Y215219D01*
X204213Y214149D01*
X204062Y213000D01*
X204213Y211851D01*
X204657Y210781D01*
X205362Y209862D01*
X206281Y209157D01*
X207351Y208713D01*
X208500Y208562D01*
X217500D01*
X218649Y208713D01*
X219719Y209157D01*
X220638Y209862D01*
X234349Y223572D01*
X235054Y224492D01*
X235497Y225562D01*
X235649Y226711D01*
Y266226D01*
X287096D01*
Y174628D01*
D02*
G37*
G36*
X367500Y130000D02*
Y90184D01*
X367072Y90027D01*
X366000Y89934D01*
X365630Y90488D01*
X344522Y111596D01*
X344405Y112032D01*
X344028Y112686D01*
X343494Y113221D01*
X342839Y113598D01*
X342110Y113794D01*
X341355D01*
X340625Y113598D01*
X339971Y113221D01*
X339437Y112686D01*
X339059Y112032D01*
X338864Y111303D01*
Y110547D01*
X339059Y109818D01*
X339437Y109164D01*
X339971Y108630D01*
X340625Y108252D01*
X341062Y108135D01*
X357597Y91600D01*
X357023Y90214D01*
X348500D01*
X348227Y90159D01*
X347995Y90005D01*
X346578Y89979D01*
X346429Y90004D01*
X346156Y90058D01*
X340620D01*
X339999Y91558D01*
X342403Y93962D01*
X342839Y94079D01*
X343494Y94457D01*
X344028Y94991D01*
X344405Y95645D01*
X344601Y96374D01*
Y97130D01*
X344405Y97859D01*
X344028Y98513D01*
X343494Y99047D01*
X342839Y99425D01*
X342110Y99620D01*
X341355D01*
X340625Y99425D01*
X339971Y99047D01*
X339437Y98513D01*
X339059Y97859D01*
X338942Y97423D01*
X336297Y94777D01*
X329157D01*
X328221Y94591D01*
X327427Y94060D01*
X325670Y92303D01*
X325139Y91509D01*
X324953Y90573D01*
Y66206D01*
X325139Y65269D01*
X325670Y64476D01*
X332229Y57916D01*
X333023Y57386D01*
X333959Y57200D01*
X338292D01*
Y57047D01*
X338644D01*
X338795Y56895D01*
X339027Y56741D01*
X339300Y56686D01*
X342000D01*
X342273Y56741D01*
X342505Y56895D01*
X342656Y57047D01*
X342792D01*
X342883Y57274D01*
X343005Y57395D01*
X343159Y57627D01*
X343214Y57900D01*
X343214Y58100D01*
X343214Y58100D01*
X343214Y58100D01*
X343214Y58372D01*
Y58714D01*
X343570Y59110D01*
X344500Y59786D01*
X351508D01*
X351518Y59785D01*
X352786Y59000D01*
X352786Y58499D01*
Y50000D01*
X352841Y49727D01*
X352995Y49495D01*
X353495Y48995D01*
X353727Y48841D01*
X354000Y48786D01*
X360000D01*
X360273Y48841D01*
X360505Y48995D01*
X361005Y49495D01*
X361159Y49727D01*
X361214Y50000D01*
Y59000D01*
X361219Y59100D01*
X361618Y60079D01*
X361734Y60283D01*
X362031Y60600D01*
X362230Y60639D01*
X363024Y61170D01*
X365630Y63776D01*
X366000Y64329D01*
X367072Y64236D01*
X367500Y64079D01*
Y7500D01*
X365000Y5000D01*
X354216D01*
X353214Y6500D01*
X353257Y6716D01*
X353071Y7653D01*
X352540Y8447D01*
X351746Y8977D01*
X350810Y9163D01*
X346964D01*
X346964Y12250D01*
X346909Y12523D01*
X346755Y12755D01*
X346755Y12755D01*
X346566Y12943D01*
Y13289D01*
X346032Y13404D01*
X346023Y13409D01*
X345752Y13463D01*
X345750Y13464D01*
X345750Y13464D01*
X345138Y13464D01*
X343960D01*
X343386Y14850D01*
X344774Y16237D01*
X345194Y16866D01*
X345222Y17007D01*
X346566D01*
Y20770D01*
X344277D01*
X343920Y20821D01*
X343438Y21213D01*
X343088Y21729D01*
X342861Y22141D01*
Y22773D01*
X339961D01*
Y23523D01*
X339211D01*
Y26073D01*
X337174Y26073D01*
X337058Y26074D01*
X335679Y26357D01*
Y33779D01*
X330735D01*
Y28177D01*
X330708Y28129D01*
X329235Y27460D01*
X328914Y27740D01*
X328876Y28218D01*
X328942Y28432D01*
X329096Y28664D01*
X329151Y28937D01*
Y31563D01*
X329096Y31836D01*
X328942Y32068D01*
X328005Y33005D01*
X327773Y33159D01*
X327500Y33214D01*
X307367D01*
X307027Y33551D01*
X306474Y34714D01*
X306623Y35074D01*
X306735Y35925D01*
X306623Y36777D01*
X306294Y37570D01*
X305771Y38252D01*
X305090Y38775D01*
X304296Y39103D01*
X303445Y39215D01*
X301476D01*
X300625Y39103D01*
X299831Y38775D01*
X299367Y38418D01*
X298536Y38631D01*
X297867Y39044D01*
Y43692D01*
X298143Y44076D01*
X299016Y44857D01*
X299903D01*
X300625Y44558D01*
X301476Y44446D01*
X303445D01*
X304296Y44558D01*
X305019Y44857D01*
X327776D01*
X328049Y44911D01*
X328280Y45066D01*
X328602Y45388D01*
X337152D01*
X342177Y40362D01*
Y33779D01*
X342153D01*
Y27573D01*
X342153Y26080D01*
X340711Y26073D01*
Y24273D01*
X342861D01*
Y24580D01*
X342861Y26073D01*
X344358Y26080D01*
X347096D01*
Y27483D01*
X351170D01*
X352107Y27669D01*
X352901Y28199D01*
X353431Y28993D01*
X353617Y29930D01*
X353431Y30866D01*
X352901Y31660D01*
X352107Y32190D01*
X351170Y32377D01*
X347096D01*
Y33779D01*
X347071D01*
Y41376D01*
X346885Y42312D01*
X346355Y43106D01*
X339896Y49565D01*
X339102Y50095D01*
X338165Y50282D01*
X329151D01*
Y51583D01*
X329096Y51856D01*
X328942Y52087D01*
X328261Y52768D01*
X328029Y52923D01*
X327756Y52977D01*
X318223D01*
X317157Y54024D01*
Y57708D01*
X317659Y58727D01*
X317714Y59000D01*
Y63000D01*
X317659Y63273D01*
X317505Y63505D01*
X317659Y64883D01*
X317714Y65156D01*
Y68000D01*
X317659Y68273D01*
X317505Y68505D01*
X317504Y68505D01*
X317157Y69024D01*
Y70697D01*
X318607Y71367D01*
X319264Y71095D01*
X319974D01*
X320631Y71367D01*
X321133Y71869D01*
X321405Y72526D01*
Y73236D01*
X321133Y73892D01*
X320631Y74395D01*
X319974Y74667D01*
X319264D01*
X319214Y74646D01*
X317802Y75413D01*
X317714Y75525D01*
Y77900D01*
X317659Y78173D01*
X317195Y78960D01*
X317505Y79495D01*
X317659Y79727D01*
X317714Y80000D01*
Y83000D01*
X317659Y83273D01*
X317505Y83505D01*
X317504Y83505D01*
X317157Y84024D01*
Y84647D01*
X317505Y84995D01*
X317659Y85227D01*
X317714Y85500D01*
Y88755D01*
X319723D01*
Y89000D01*
X318500D01*
Y89500D01*
X318000Y90000D01*
Y100509D01*
X316845Y100612D01*
X316773Y100659D01*
X316500Y100714D01*
X311729D01*
X311555Y100786D01*
X310845D01*
X310671Y100714D01*
X309529Y100714D01*
X309355Y100786D01*
X308645D01*
X308446Y100704D01*
X308362Y100687D01*
X308225Y100659D01*
X308225Y100659D01*
X308224Y100659D01*
X308110Y100582D01*
X308038Y100535D01*
X307988Y100514D01*
X307486Y100012D01*
X307474Y99984D01*
X307195Y99704D01*
X307195Y99703D01*
X307195Y99703D01*
X307119Y99589D01*
X307041Y99472D01*
X307041Y99471D01*
X307041Y99471D01*
X307014Y99334D01*
X306987Y99199D01*
X306988Y99198D01*
X306987Y99197D01*
X306996Y96784D01*
X306996Y96782D01*
X306996Y96781D01*
X307024Y96648D01*
X307051Y96510D01*
X307052Y96509D01*
X307052Y96508D01*
X307130Y96394D01*
X307207Y96280D01*
X307208Y96279D01*
X307209Y96278D01*
X307785Y95710D01*
X307786Y95709D01*
X307787Y95708D01*
X307903Y95632D01*
X308018Y95557D01*
X308019Y95556D01*
X308020Y95556D01*
X308156Y95530D01*
X308291Y95504D01*
X308292Y95505D01*
X308294Y95504D01*
X308912Y95511D01*
X310286Y94151D01*
Y90795D01*
X309445D01*
Y87895D01*
X307945D01*
Y90795D01*
X306145D01*
X306113Y90495D01*
X301613D01*
Y90495D01*
X300113Y90425D01*
X300000Y90447D01*
X299064Y90261D01*
X298270Y89730D01*
X296386Y87846D01*
X295000Y88420D01*
Y127500D01*
X300000Y132500D01*
X365000D01*
X367500Y130000D01*
D02*
G37*
G36*
X317000Y99500D02*
Y86000D01*
Y85500D01*
X316283Y84783D01*
X311717Y84783D01*
X311000Y85500D01*
Y95505D01*
X310258Y96239D01*
X308286Y96218D01*
X307710Y96786D01*
X307701Y99200D01*
X308498Y100000D01*
X311500Y100000D01*
X316500D01*
X317000Y99500D01*
D02*
G37*
G36*
X360500Y88500D02*
Y84000D01*
X349500Y84000D01*
X348500Y85000D01*
Y89500D01*
X359500D01*
X360500Y88500D01*
D02*
G37*
G36*
X347000D02*
Y85000D01*
X345844Y83844D01*
X332811Y83844D01*
X332000Y84656D01*
Y88000D01*
X333344Y89344D01*
X346156D01*
X347000Y88500D01*
D02*
G37*
G36*
X316000Y84000D02*
X317000Y83000D01*
Y80000D01*
X316000Y79000D01*
X302500D01*
X301500Y80000D01*
Y83000D01*
X302500Y84000D01*
X316000Y84000D01*
D02*
G37*
G36*
X353000Y82500D02*
Y78500D01*
X352500Y78000D01*
X339500D01*
X338500Y79000D01*
X332500D01*
Y82500D01*
X333000Y83000D01*
X352500D01*
X353000Y82500D01*
D02*
G37*
G36*
X317000Y77900D02*
Y74400D01*
X316700Y74100D01*
X306700D01*
X306200Y74600D01*
Y77900D01*
X306600Y78300D01*
X316600D01*
X317000Y77900D01*
D02*
G37*
G36*
X339000Y77000D02*
X360000D01*
X361000Y76000D01*
Y73000D01*
X360000Y72000D01*
X340500Y72000D01*
X339000Y73500D01*
X333500Y73500D01*
X332500Y74500D01*
Y77000D01*
X333000Y77500D01*
X338500D01*
X339000Y77000D01*
D02*
G37*
G36*
X304088Y77812D02*
Y73820D01*
X304958D01*
Y73820D01*
X306328Y73507D01*
X306427Y73441D01*
X306700Y73386D01*
X309892D01*
X311111Y72708D01*
Y69714D01*
X307000D01*
X306727Y69659D01*
X306495Y69505D01*
X306458Y69467D01*
X304958Y69550D01*
X304958Y69550D01*
X304088D01*
Y65188D01*
X303800Y64900D01*
X300100D01*
X299700Y65300D01*
Y69550D01*
X299158D01*
X298895Y70941D01*
Y72428D01*
X299158Y73820D01*
X299700D01*
Y77600D01*
X300200Y78100D01*
X303800Y78100D01*
X304088Y77812D01*
D02*
G37*
G36*
X340000Y71000D02*
X361000D01*
X361500Y70500D01*
Y66500D01*
X361000Y66000D01*
X341500D01*
X339000Y68500D01*
X333500Y68500D01*
X332500Y69500D01*
Y72000D01*
X333000Y72500D01*
X338500D01*
X340000Y71000D01*
D02*
G37*
G36*
X317000Y68000D02*
Y65156D01*
X316503Y64659D01*
X307341D01*
X306000Y66000D01*
Y68000D01*
X307000Y69000D01*
X316000D01*
X317000Y68000D01*
D02*
G37*
G36*
X340800Y65200D02*
X353000D01*
X354000Y64200D01*
Y61500D01*
X353000Y60500D01*
X344500D01*
X342200Y62800D01*
X334200Y62800D01*
X332500Y64500D01*
Y66700D01*
X333000Y67200D01*
X338800D01*
X340800Y65200D01*
D02*
G37*
G36*
X317000Y63000D02*
Y59000D01*
X316000Y58000D01*
X307000D01*
X306000Y59000D01*
Y63000D01*
X306606Y63606D01*
X316394D01*
X317000Y63000D01*
D02*
G37*
G36*
X303000D02*
Y59000D01*
X302000Y58000D01*
X295000D01*
X294000Y59000D01*
Y63000D01*
X295000Y64000D01*
X302000D01*
X303000Y63000D01*
D02*
G37*
G36*
X342500Y61100D02*
Y58100D01*
X342500Y57900D01*
X342000Y57400D01*
X339300D01*
X338600Y58100D01*
X337500Y59200D01*
X332600D01*
X332300Y59500D01*
Y61800D01*
X332600Y62100D01*
X341500D01*
X342500Y61100D01*
D02*
G37*
G36*
X360500Y59000D02*
Y50000D01*
X360000Y49500D01*
X354000D01*
X353500Y50000D01*
Y59000D01*
X354000Y59500D01*
X360000D01*
X360500Y59000D01*
D02*
G37*
G36*
X328437Y51583D02*
Y46232D01*
X327776Y45571D01*
X299016D01*
X297835Y46752D01*
Y50689D01*
X299410Y52264D01*
X327756D01*
X328437Y51583D01*
D02*
G37*
G36*
Y31563D02*
Y28937D01*
X327000Y27500D01*
X306376D01*
X306000Y27771D01*
X300087D01*
X298937Y28921D01*
Y31421D01*
X300016Y32500D01*
X327500D01*
X328437Y31563D01*
D02*
G37*
G36*
X329000Y25500D02*
Y16500D01*
X327500Y15000D01*
X320000D01*
X319000Y16000D01*
Y25500D01*
X320000Y26500D01*
X328000Y26500D01*
X329000Y25500D01*
D02*
G37*
G36*
X311505Y25910D02*
X317361Y25910D01*
X318000Y25271D01*
Y20949D01*
X318286D01*
Y16000D01*
X318341Y15727D01*
X318495Y15495D01*
X319083Y14907D01*
Y14645D01*
X319346D01*
X319495Y14495D01*
X319727Y14341D01*
X320000Y14286D01*
X323546D01*
Y9398D01*
X325235D01*
X325257Y9383D01*
X326096Y9216D01*
X332825D01*
X333465Y9216D01*
X334304Y7854D01*
Y7466D01*
X337204D01*
Y5966D01*
X334304D01*
Y5000D01*
X297500D01*
X295000Y7500D01*
Y26186D01*
X296386Y26760D01*
X298284Y24861D01*
X298186Y24114D01*
X298298Y23262D01*
X298627Y22469D01*
X298841Y22189D01*
X299033Y21161D01*
X298841Y20133D01*
X298627Y19854D01*
X298298Y19060D01*
X298186Y18209D01*
X298298Y17357D01*
X298627Y16564D01*
X299150Y15882D01*
X299831Y15359D01*
X300625Y15031D01*
X301476Y14918D01*
X303445D01*
X304296Y15031D01*
X305090Y15359D01*
X305771Y15882D01*
X306294Y16564D01*
X306623Y17357D01*
X306735Y18209D01*
X306623Y19060D01*
X306294Y19854D01*
X306080Y20133D01*
X305888Y21161D01*
X306080Y22189D01*
X306294Y22469D01*
X306623Y23262D01*
X306735Y24114D01*
X306623Y24966D01*
X306490Y25286D01*
X307084Y26495D01*
X307397Y26786D01*
X310687D01*
X311505Y25910D01*
D02*
G37*
G36*
X78000Y72000D02*
Y52000D01*
X74000Y48000D01*
X54000D01*
X38000Y32000D01*
Y24000D01*
X34000Y20000D01*
Y8000D01*
X32000Y6000D01*
X30000D01*
X28000Y8000D01*
Y20000D01*
X32000Y24000D01*
Y34000D01*
X50000Y52000D01*
Y72000D01*
X54000Y76000D01*
X74000D01*
X78000Y72000D01*
D02*
G37*
G36*
X346250Y12250D02*
X346250Y4750D01*
X345750Y4250D01*
X341250D01*
X340750Y4750D01*
Y12250D01*
X341250Y12750D01*
X345750D01*
X346250Y12250D01*
D02*
G37*
%LPC*%
G36*
X263355Y215286D02*
X262645D01*
X261988Y215014D01*
X261486Y214512D01*
X261214Y213855D01*
Y213145D01*
X261486Y212488D01*
X261988Y211986D01*
X262645Y211714D01*
X263355D01*
X264012Y211986D01*
X264514Y212488D01*
X264786Y213145D01*
Y213855D01*
X264514Y214512D01*
X264012Y215014D01*
X263355Y215286D01*
D02*
G37*
G36*
X29347Y209588D02*
Y201520D01*
X33577D01*
Y204707D01*
X33407Y205996D01*
X32910Y207196D01*
X32118Y208228D01*
X31087Y209019D01*
X29886Y209517D01*
X29347Y209588D01*
D02*
G37*
G36*
X27847D02*
X27309Y209517D01*
X26108Y209019D01*
X25076Y208228D01*
X24285Y207196D01*
X23787Y205996D01*
X23618Y204707D01*
Y201520D01*
X27847D01*
Y209588D01*
D02*
G37*
G36*
X216855Y198786D02*
X216145D01*
X215488Y198514D01*
X215250Y198275D01*
X215012Y198514D01*
X214355Y198786D01*
X213645D01*
X212988Y198514D01*
X212750Y198275D01*
X212512Y198514D01*
X211855Y198786D01*
X211145D01*
X210488Y198514D01*
X210250Y198275D01*
X210012Y198514D01*
X209355Y198786D01*
X208645D01*
X207988Y198514D01*
X207486Y198012D01*
X207214Y197355D01*
Y196645D01*
X207486Y195988D01*
X207988Y195486D01*
X208645Y195214D01*
X209355D01*
X210012Y195486D01*
X210250Y195724D01*
X210488Y195486D01*
X211145Y195214D01*
X211855D01*
X212512Y195486D01*
X212750Y195724D01*
X212988Y195486D01*
X213645Y195214D01*
X214355D01*
X215012Y195486D01*
X215250Y195724D01*
X215488Y195486D01*
X216145Y195214D01*
X216855D01*
X217512Y195486D01*
X218014Y195988D01*
X218286Y196645D01*
Y197355D01*
X218014Y198012D01*
X217512Y198514D01*
X216855Y198786D01*
D02*
G37*
G36*
X75355Y206786D02*
X74645D01*
X73988Y206514D01*
X73486Y206012D01*
X73214Y205355D01*
X72945Y204555D01*
X72145Y204286D01*
X71488Y204014D01*
X70986Y203512D01*
X70714Y202855D01*
Y202145D01*
X70986Y201488D01*
X71488Y200986D01*
X72145Y200714D01*
X72945Y200445D01*
X73214Y199645D01*
X73486Y198988D01*
X73988Y198486D01*
X74645Y198214D01*
X75355D01*
X76012Y198486D01*
X76514Y198988D01*
X76786Y199645D01*
Y200355D01*
X76514Y201012D01*
X76012Y201514D01*
X75355Y201786D01*
Y203214D01*
X76012Y203486D01*
X76514Y203988D01*
X76786Y204645D01*
Y205355D01*
X76514Y206012D01*
X76012Y206514D01*
X75355Y206786D01*
D02*
G37*
G36*
X53401Y213125D02*
X52241Y212973D01*
X51160Y212525D01*
X50232Y211813D01*
X49519Y210884D01*
X49072Y209804D01*
X48919Y208644D01*
Y201557D01*
X49072Y200397D01*
X49519Y199316D01*
X50232Y198388D01*
X51160Y197676D01*
X52241Y197228D01*
X53401Y197075D01*
X54561Y197228D01*
X55641Y197676D01*
X56570Y198388D01*
X57282Y199316D01*
X57730Y200397D01*
X57882Y201557D01*
Y208644D01*
X57730Y209804D01*
X57282Y210884D01*
X56570Y211813D01*
X55641Y212525D01*
X54561Y212973D01*
X53401Y213125D01*
D02*
G37*
G36*
X11543Y205804D02*
X10218D01*
X8938Y205461D01*
X7790Y204798D01*
X6853Y203861D01*
X6190Y202713D01*
X5847Y201432D01*
Y200107D01*
X6190Y198827D01*
X6853Y197679D01*
X7790Y196742D01*
X8938Y196079D01*
X10218Y195736D01*
X11543D01*
X12824Y196079D01*
X13972Y196742D01*
X14909Y197679D01*
X15572Y198827D01*
X15915Y200107D01*
Y201432D01*
X15572Y202713D01*
X14909Y203861D01*
X13972Y204798D01*
X12824Y205461D01*
X11543Y205804D01*
D02*
G37*
G36*
X269555Y196112D02*
X268845D01*
X268188Y195840D01*
X267686Y195338D01*
X267414Y194681D01*
Y193971D01*
X267686Y193315D01*
X268188Y192812D01*
X268845Y192540D01*
X269555D01*
X270212Y192812D01*
X270714Y193315D01*
X270986Y193971D01*
Y194681D01*
X270714Y195338D01*
X270212Y195840D01*
X269555Y196112D01*
D02*
G37*
G36*
X33577Y200020D02*
X29347D01*
Y191952D01*
X29886Y192023D01*
X31087Y192520D01*
X32118Y193312D01*
X32910Y194343D01*
X33407Y195544D01*
X33577Y196833D01*
Y200020D01*
D02*
G37*
G36*
X27847D02*
X23618D01*
Y196833D01*
X23787Y195544D01*
X24285Y194343D01*
X25076Y193312D01*
X26108Y192520D01*
X27309Y192023D01*
X27847Y191952D01*
Y200020D01*
D02*
G37*
G36*
X45133Y186852D02*
X41946D01*
Y182622D01*
X50014D01*
X49943Y183161D01*
X49445Y184362D01*
X48654Y185393D01*
X47623Y186184D01*
X46422Y186682D01*
X45133Y186852D01*
D02*
G37*
G36*
X40446D02*
X37259D01*
X35970Y186682D01*
X34769Y186184D01*
X33738Y185393D01*
X32946Y184362D01*
X32449Y183161D01*
X32378Y182622D01*
X40446D01*
Y186852D01*
D02*
G37*
G36*
X50014Y181122D02*
X41946D01*
Y176892D01*
X45133D01*
X46422Y177062D01*
X47623Y177559D01*
X48654Y178351D01*
X49445Y179382D01*
X49943Y180583D01*
X50014Y181122D01*
D02*
G37*
G36*
X40446D02*
X32378D01*
X32449Y180583D01*
X32946Y179382D01*
X33738Y178351D01*
X34769Y177559D01*
X35970Y177062D01*
X37259Y176892D01*
X40446D01*
Y181122D01*
D02*
G37*
G36*
X234875Y177884D02*
X234125D01*
X233433Y177597D01*
X233365Y177529D01*
X227037D01*
X226452Y177413D01*
X225956Y177081D01*
X218919Y170044D01*
X218587Y169548D01*
X218471Y168963D01*
Y145000D01*
X218587Y144415D01*
X218919Y143919D01*
X219730Y143107D01*
X219986Y142488D01*
X220488Y141986D01*
X221145Y141714D01*
X221855D01*
X222512Y141986D01*
X223014Y142488D01*
X223286Y143145D01*
Y143855D01*
X223014Y144512D01*
X222512Y145014D01*
X221892Y145270D01*
X221529Y145633D01*
Y161528D01*
X222345Y162814D01*
X223055D01*
X223712Y163086D01*
X224214Y163588D01*
X224486Y164245D01*
Y164955D01*
X224214Y165612D01*
X223712Y166114D01*
X223055Y166386D01*
X222345D01*
X221529Y167672D01*
Y168330D01*
X227671Y174471D01*
X233365D01*
X233433Y174403D01*
X234125Y174116D01*
X234875D01*
X235567Y174403D01*
X236097Y174933D01*
X236384Y175625D01*
Y176375D01*
X236097Y177067D01*
X235567Y177597D01*
X234875Y177884D01*
D02*
G37*
G36*
X109355Y183786D02*
X108645D01*
X107988Y183514D01*
X107486Y183012D01*
X107214Y182355D01*
Y181645D01*
X107486Y180988D01*
X107867Y180250D01*
X107486Y179512D01*
X107214Y178855D01*
Y178145D01*
X107486Y177488D01*
X107975Y177000D01*
X107486Y176512D01*
X107214Y175855D01*
Y175145D01*
X107486Y174488D01*
X107988Y173986D01*
X108645Y173714D01*
X109355D01*
X110012Y173986D01*
X110514Y174488D01*
X110786Y175145D01*
Y175855D01*
X110514Y176512D01*
X110026Y177000D01*
X110514Y177488D01*
X110786Y178145D01*
Y178855D01*
X110514Y179512D01*
X110133Y180250D01*
X110514Y180988D01*
X110786Y181645D01*
Y182355D01*
X110514Y183012D01*
X110012Y183514D01*
X109355Y183786D01*
D02*
G37*
G36*
X57442Y152967D02*
X56731D01*
X56075Y152695D01*
X55709Y152329D01*
X55342Y152695D01*
X54686Y152967D01*
X53975D01*
X53319Y152695D01*
X52953Y152329D01*
X52586Y152695D01*
X51930Y152967D01*
X51220D01*
X50563Y152695D01*
X50061Y152193D01*
X49789Y151536D01*
Y150826D01*
X50061Y150170D01*
X50563Y149667D01*
X51220Y149395D01*
X51930D01*
X52586Y149667D01*
X52953Y150033D01*
X53319Y149667D01*
X53975Y149395D01*
X54686D01*
X55342Y149667D01*
X55709Y150033D01*
X56075Y149667D01*
X56731Y149395D01*
X57442D01*
X58098Y149667D01*
X58601Y150170D01*
X58872Y150826D01*
Y151536D01*
X58601Y152193D01*
X58098Y152695D01*
X57442Y152967D01*
D02*
G37*
G36*
X259355Y143286D02*
X258645D01*
X257988Y143014D01*
X257486Y142512D01*
X257214Y141855D01*
Y141145D01*
X257486Y140488D01*
X257988Y139986D01*
X258645Y139714D01*
X259355D01*
X260012Y139986D01*
X260514Y140488D01*
X260786Y141145D01*
Y141855D01*
X260514Y142512D01*
X260012Y143014D01*
X259355Y143286D01*
D02*
G37*
G36*
X29805Y148000D02*
X28532D01*
X27301Y147670D01*
X26198Y147033D01*
X25298Y146133D01*
X24661Y145029D01*
X24331Y143799D01*
Y142526D01*
X24661Y141296D01*
X25298Y140192D01*
X26198Y139292D01*
X27301Y138655D01*
X28532Y138326D01*
X29805D01*
X31035Y138655D01*
X32138Y139292D01*
X33039Y140192D01*
X33676Y141296D01*
X34005Y142526D01*
Y143799D01*
X33676Y145029D01*
X33039Y146133D01*
X32138Y147033D01*
X31035Y147670D01*
X29805Y148000D01*
D02*
G37*
G36*
X208355Y128286D02*
X207645D01*
X206988Y128014D01*
X206486Y127512D01*
X206214Y126855D01*
Y126145D01*
X206486Y125488D01*
X206988Y124986D01*
X207645Y124714D01*
X208355D01*
X209012Y124986D01*
X209514Y125488D01*
X209786Y126145D01*
Y126855D01*
X209514Y127512D01*
X209012Y128014D01*
X208355Y128286D01*
D02*
G37*
G36*
X15886Y134080D02*
X14612D01*
X13382Y133750D01*
X12279Y133114D01*
X11378Y132213D01*
X10741Y131110D01*
X10412Y129880D01*
Y128606D01*
X10741Y127376D01*
X11378Y126273D01*
X12279Y125372D01*
X13382Y124736D01*
X14612Y124406D01*
X15886D01*
X17116Y124736D01*
X18219Y125372D01*
X19119Y126273D01*
X19756Y127376D01*
X20086Y128606D01*
Y129880D01*
X19756Y131110D01*
X19119Y132213D01*
X18219Y133114D01*
X17116Y133750D01*
X15886Y134080D01*
D02*
G37*
G36*
X165077Y116127D02*
X163803D01*
X162573Y115798D01*
X161470Y115161D01*
X160569Y114260D01*
X159933Y113157D01*
X159603Y111927D01*
Y110653D01*
X159933Y109423D01*
X160569Y108320D01*
X161470Y107420D01*
X162573Y106783D01*
X163803Y106453D01*
X165077D01*
X166307Y106783D01*
X167410Y107420D01*
X168311Y108320D01*
X168947Y109423D01*
X169277Y110653D01*
Y111927D01*
X168947Y113157D01*
X168311Y114260D01*
X167410Y115161D01*
X166307Y115798D01*
X165077Y116127D01*
D02*
G37*
G36*
X151171Y102308D02*
X149871D01*
X148615Y101971D01*
X147579Y101373D01*
X150521Y98432D01*
X153462Y101373D01*
X152426Y101971D01*
X151171Y102308D01*
D02*
G37*
G36*
X146518Y100313D02*
X145920Y99277D01*
X145584Y98021D01*
Y96721D01*
X145920Y95465D01*
X146518Y94429D01*
X149460Y97371D01*
X146518Y100313D01*
D02*
G37*
G36*
X154523D02*
X151581Y97371D01*
X154523Y94429D01*
X155121Y95465D01*
X155458Y96721D01*
Y98021D01*
X155121Y99277D01*
X154523Y100313D01*
D02*
G37*
G36*
X150521Y96310D02*
X147579Y93369D01*
X148615Y92770D01*
X149871Y92434D01*
X151171D01*
X152426Y92770D01*
X153462Y93369D01*
X150521Y96310D01*
D02*
G37*
G36*
X170355Y75286D02*
X169645D01*
X168988Y75014D01*
X168250Y74633D01*
X167512Y75014D01*
X166855Y75286D01*
X166145D01*
X165488Y75014D01*
X165447Y74972D01*
X164500Y74668D01*
X163553Y74972D01*
X163512Y75014D01*
X162855Y75286D01*
X162145D01*
X161488Y75014D01*
X160986Y74512D01*
X160714Y73855D01*
Y73145D01*
X160986Y72488D01*
X161488Y71986D01*
X162145Y71714D01*
X162855D01*
X163512Y71986D01*
X163553Y72028D01*
X164500Y72332D01*
X165447Y72028D01*
X165488Y71986D01*
X166145Y71714D01*
X166855D01*
X167512Y71986D01*
X168250Y72367D01*
X168988Y71986D01*
X169645Y71714D01*
X170355D01*
X171012Y71986D01*
X171514Y72488D01*
X171786Y73145D01*
Y73855D01*
X171514Y74512D01*
X171012Y75014D01*
X170355Y75286D01*
D02*
G37*
G36*
X239355Y50286D02*
X238645D01*
X237988Y50014D01*
X237500Y49525D01*
X237012Y50014D01*
X236355Y50286D01*
X235645D01*
X234988Y50014D01*
X234500Y49525D01*
X234012Y50014D01*
X233355Y50286D01*
X232645D01*
X231988Y50014D01*
X231486Y49512D01*
X231214Y48855D01*
Y48145D01*
X231486Y47488D01*
X231988Y46986D01*
X232645Y46714D01*
X233355D01*
X234012Y46986D01*
X234500Y47475D01*
X234988Y46986D01*
X235645Y46714D01*
X236355D01*
X237012Y46986D01*
X237500Y47475D01*
X237988Y46986D01*
X238645Y46714D01*
X239355D01*
X240012Y46986D01*
X240514Y47488D01*
X240786Y48145D01*
Y48855D01*
X240514Y49512D01*
X240012Y50014D01*
X239355Y50286D01*
D02*
G37*
G36*
X182640Y53798D02*
Y45730D01*
X186869D01*
Y48917D01*
X186700Y50206D01*
X186202Y51407D01*
X185411Y52438D01*
X184380Y53230D01*
X183179Y53727D01*
X182640Y53798D01*
D02*
G37*
G36*
X181140D02*
X180601Y53727D01*
X179400Y53230D01*
X178369Y52438D01*
X177577Y51407D01*
X177080Y50206D01*
X176910Y48917D01*
Y45730D01*
X181140D01*
Y53798D01*
D02*
G37*
G36*
X277461Y46794D02*
X275492D01*
X274640Y46682D01*
X273847Y46354D01*
X273165Y45831D01*
X272643Y45149D01*
X272314Y44356D01*
X272202Y43504D01*
X272314Y42652D01*
X272643Y41859D01*
X273165Y41177D01*
X273847Y40654D01*
X274640Y40326D01*
X275492Y40214D01*
X277461D01*
X278312Y40326D01*
X279106Y40654D01*
X279787Y41177D01*
X280310Y41859D01*
X280639Y42652D01*
X280751Y43504D01*
X280639Y44356D01*
X280310Y45149D01*
X279787Y45831D01*
X279106Y46354D01*
X278312Y46682D01*
X277461Y46794D01*
D02*
G37*
G36*
X221221Y40825D02*
X220511D01*
X219855Y40553D01*
X219352Y40051D01*
X219080Y39395D01*
Y38684D01*
X219352Y38028D01*
X219855Y37525D01*
X220511Y37253D01*
X221221D01*
X221878Y37525D01*
X222380Y38028D01*
X222652Y38684D01*
Y39395D01*
X222380Y40051D01*
X221878Y40553D01*
X221221Y40825D01*
D02*
G37*
G36*
X186869Y44230D02*
X182640D01*
Y36162D01*
X183179Y36233D01*
X184380Y36731D01*
X185411Y37522D01*
X186202Y38554D01*
X186700Y39755D01*
X186869Y41043D01*
Y44230D01*
D02*
G37*
G36*
X181140D02*
X176910D01*
Y41043D01*
X177080Y39755D01*
X177577Y38554D01*
X178369Y37522D01*
X179400Y36731D01*
X180601Y36233D01*
X181140Y36162D01*
Y44230D01*
D02*
G37*
G36*
X166929Y37362D02*
X163742D01*
Y33132D01*
X171810D01*
X171739Y33671D01*
X171242Y34872D01*
X170450Y35903D01*
X169419Y36694D01*
X168218Y37192D01*
X166929Y37362D01*
D02*
G37*
G36*
X162242D02*
X159055D01*
X157766Y37192D01*
X156565Y36694D01*
X155534Y35903D01*
X154743Y34872D01*
X154245Y33671D01*
X154174Y33132D01*
X162242D01*
Y37362D01*
D02*
G37*
G36*
X171810Y31632D02*
X163742D01*
Y27402D01*
X166929D01*
X168218Y27572D01*
X169419Y28069D01*
X170450Y28861D01*
X171242Y29892D01*
X171739Y31093D01*
X171810Y31632D01*
D02*
G37*
G36*
X162242D02*
X154174D01*
X154245Y31093D01*
X154743Y29892D01*
X155534Y28861D01*
X156565Y28069D01*
X157766Y27572D01*
X159055Y27402D01*
X162242D01*
Y31632D01*
D02*
G37*
G36*
X277461Y34983D02*
X275492D01*
X274640Y34871D01*
X273847Y34543D01*
X273165Y34020D01*
X272643Y33338D01*
X272314Y32545D01*
X272202Y31693D01*
X272314Y30841D01*
X272643Y30048D01*
X272857Y29768D01*
X273049Y28740D01*
X272857Y27712D01*
X272643Y27433D01*
X272314Y26639D01*
X272202Y25787D01*
X272314Y24936D01*
X272643Y24142D01*
X272857Y23863D01*
X273049Y22835D01*
X272857Y21807D01*
X272643Y21527D01*
X272314Y20734D01*
X272202Y19882D01*
X272314Y19030D01*
X272643Y18237D01*
X272857Y17957D01*
X273049Y16929D01*
X272857Y15901D01*
X272643Y15621D01*
X272314Y14828D01*
X272202Y13976D01*
X272314Y13125D01*
X272643Y12331D01*
X273165Y11650D01*
X273847Y11127D01*
X274640Y10798D01*
X275492Y10686D01*
X277461D01*
X278312Y10798D01*
X279106Y11127D01*
X279787Y11650D01*
X280310Y12331D01*
X280639Y13125D01*
X280751Y13976D01*
X280639Y14828D01*
X280310Y15621D01*
X280096Y15901D01*
X279904Y16929D01*
X280096Y17957D01*
X280310Y18237D01*
X280639Y19030D01*
X280751Y19882D01*
X280639Y20734D01*
X280310Y21527D01*
X280096Y21807D01*
X279904Y22835D01*
X280096Y23863D01*
X280310Y24142D01*
X280639Y24936D01*
X280751Y25787D01*
X280639Y26639D01*
X280310Y27433D01*
X280096Y27712D01*
X279904Y28740D01*
X280096Y29768D01*
X280310Y30048D01*
X280639Y30841D01*
X280751Y31693D01*
X280639Y32545D01*
X280310Y33338D01*
X279787Y34020D01*
X279106Y34543D01*
X278312Y34871D01*
X277461Y34983D01*
D02*
G37*
G36*
X163655Y19699D02*
X162329D01*
X161049Y19356D01*
X159901Y18693D01*
X158964Y17756D01*
X158301Y16608D01*
X157958Y15328D01*
Y14003D01*
X158301Y12722D01*
X158964Y11575D01*
X159901Y10637D01*
X161049Y9974D01*
X162329Y9631D01*
X163655D01*
X164935Y9974D01*
X166083Y10637D01*
X167020Y11575D01*
X167683Y12722D01*
X168026Y14003D01*
Y15328D01*
X167683Y16608D01*
X167020Y17756D01*
X166083Y18693D01*
X164935Y19356D01*
X163655Y19699D01*
D02*
G37*
G36*
X323373Y89873D02*
X322500Y89000D01*
X321223D01*
Y88755D01*
X323373D01*
Y89873D01*
D02*
G37*
G36*
X316059Y14410D02*
X314431D01*
Y14345D01*
X316059D01*
Y14410D01*
D02*
G37*
G36*
X312931D02*
X311303D01*
Y14345D01*
X312931D01*
Y14410D01*
D02*
G37*
%LPD*%
D10*
X113682Y205494D02*
X117618D01*
Y207462D01*
X116962Y208118D01*
X116306D01*
X115650Y207462D01*
Y205494D01*
Y207462D01*
X114994Y208118D01*
X114338D01*
X113682Y207462D01*
Y205494D01*
X117618Y209430D02*
X113682D01*
Y211398D01*
X114338Y212054D01*
X115650D01*
X116306Y211398D01*
Y209430D01*
Y210742D02*
X117618Y212054D01*
Y213366D02*
Y214677D01*
Y214021D01*
X113682D01*
X114338Y213366D01*
X87829Y229708D02*
X90453D01*
Y231676D01*
X89141D01*
X90453D01*
Y233644D01*
X86517D02*
X85205D01*
X85861D01*
Y229708D01*
X86517Y230364D01*
X85720Y132485D02*
Y126582D01*
X89655D01*
X91623D02*
X93591D01*
X92607D01*
Y132485D01*
X91623Y131501D01*
X52134Y127434D02*
X49510D01*
X48855Y126778D01*
Y125466D01*
X49510Y124810D01*
X52134D01*
X52790Y125466D01*
Y126778D01*
X51478Y126122D02*
X52790Y127434D01*
Y126778D02*
X52134Y127434D01*
X49510Y128746D02*
X48855Y129402D01*
Y130714D01*
X49510Y131370D01*
X50166D01*
X50822Y130714D01*
Y130058D01*
Y130714D01*
X51478Y131370D01*
X52134D01*
X52790Y130714D01*
Y129402D01*
X52134Y128746D01*
X246325Y271504D02*
Y274128D01*
X245669Y274784D01*
X244357D01*
X243701Y274128D01*
Y271504D01*
X244357Y270848D01*
X245669D01*
X245013Y272160D02*
X246325Y270848D01*
X245669D02*
X246325Y271504D01*
X250260Y270848D02*
X247637D01*
X250260Y273472D01*
Y274128D01*
X249605Y274784D01*
X248293D01*
X247637Y274128D01*
X216490Y271897D02*
X213866D01*
X213210Y271241D01*
Y269930D01*
X213866Y269274D01*
X216490D01*
X217146Y269930D01*
Y271241D01*
X215834Y270585D02*
X217146Y271897D01*
Y271241D02*
X216490Y271897D01*
X217146Y273209D02*
Y274521D01*
Y273865D01*
X213210D01*
X213866Y273209D01*
X55643Y18542D02*
X53019D01*
X52364Y17886D01*
Y16574D01*
X53019Y15918D01*
X55643D01*
X56299Y16574D01*
Y17886D01*
X54987Y17230D02*
X56299Y18542D01*
Y17886D02*
X55643Y18542D01*
X56299Y21822D02*
X52364D01*
X54331Y19854D01*
Y22478D01*
X363943Y61589D02*
X366567D01*
X367223Y62245D01*
Y63557D01*
X366567Y64213D01*
X363943D01*
X363287Y63557D01*
Y62245D01*
X364599Y62901D02*
X363287Y61589D01*
Y62245D02*
X363943Y61589D01*
X367223Y57653D02*
Y60277D01*
X365255D01*
X365911Y58965D01*
Y58309D01*
X365255Y57653D01*
X363943D01*
X363287Y58309D01*
Y59621D01*
X363943Y60277D01*
X332283Y13969D02*
Y18233D01*
X333136Y19085D01*
X334842D01*
X335694Y18233D01*
Y13969D01*
X337400Y18233D02*
X338253Y19085D01*
X339958D01*
X340811Y18233D01*
Y14821D01*
X339958Y13969D01*
X338253D01*
X337400Y14821D01*
Y15674D01*
X338253Y16527D01*
X340811D01*
D11*
X231791Y191831D02*
G03*
X231791Y191831I-787J0D01*
G01*
D14*
X263198Y124606D02*
X271072D01*
X263198Y120669D02*
X271072D01*
Y124606D01*
X263198Y120669D02*
Y124606D01*
X219963Y113969D02*
X227837D01*
X219963Y110032D02*
X227837D01*
Y113969D01*
X219963Y110032D02*
Y113969D01*
Y108968D02*
X227837D01*
X219963Y105031D02*
X227837D01*
Y108968D01*
X219963Y105031D02*
Y108968D01*
X215739Y170468D02*
X223613D01*
X215739Y166531D02*
X223613D01*
Y170468D01*
X215739Y166531D02*
Y170468D01*
X269390Y181535D02*
Y185473D01*
X277264Y181535D02*
Y185473D01*
X269390Y181535D02*
X277264D01*
X269390Y185473D02*
X277264D01*
X269390Y176535D02*
Y180472D01*
X277264Y176535D02*
Y180472D01*
X269390Y176535D02*
X277264D01*
X269390Y180472D02*
X277264D01*
X80208Y143978D02*
Y162876D01*
X103830Y143978D02*
Y162876D01*
X80208D02*
X103830D01*
X80208Y143978D02*
X103830D01*
X107457Y154501D02*
X111394D01*
X107457Y162375D02*
X111394D01*
Y154501D02*
Y162375D01*
X107457Y154501D02*
Y162375D01*
X95956Y138500D02*
Y142437D01*
X88082Y138500D02*
Y142437D01*
X95956D01*
X88082Y138500D02*
X95956D01*
X56845Y133472D02*
X60782D01*
X56845Y125598D02*
X60782D01*
X56845D02*
Y133472D01*
X60782Y125598D02*
Y133472D01*
X215131Y104921D02*
Y123819D01*
X191509Y104921D02*
Y123819D01*
Y104921D02*
X215131D01*
X191509Y123819D02*
X215131D01*
X226763Y207668D02*
X234637D01*
X226763Y203731D02*
X234637D01*
Y207668D01*
X226763Y203731D02*
Y207668D01*
X226574Y198031D02*
Y201969D01*
X234448Y198031D02*
Y201969D01*
X226574Y198031D02*
X234448D01*
X226574Y201969D02*
X234448D01*
X263686Y159162D02*
Y194604D01*
X228241Y159162D02*
Y194604D01*
Y159162D02*
X263686D01*
X228241Y194604D02*
X263686D01*
X214563Y186538D02*
Y190474D01*
X222437Y186538D02*
Y190474D01*
X214563Y186538D02*
X222437D01*
X214563Y190474D02*
X222437D01*
X203713Y164526D02*
X211587D01*
X203713Y168463D02*
X211587D01*
X203713Y164526D02*
Y168463D01*
X211587Y164526D02*
Y168463D01*
X214476Y153987D02*
X222350D01*
X214476Y150050D02*
X222350D01*
Y153987D01*
X214476Y150050D02*
Y153987D01*
Y145219D02*
Y149155D01*
X222350Y145219D02*
Y149155D01*
X214476Y145219D02*
X222350D01*
X214476Y149155D02*
X222350D01*
X237983Y145079D02*
Y152953D01*
X241920Y145079D02*
Y152953D01*
X237983D02*
X241920D01*
X237983Y145079D02*
X241920D01*
X233152D02*
Y152953D01*
X237089Y145079D02*
Y152953D01*
X233152D02*
X237089D01*
X233152Y145079D02*
X237089D01*
X228320D02*
Y152953D01*
X232257Y145079D02*
Y152953D01*
X228320D02*
X232257D01*
X228320Y145079D02*
X232257D01*
X246752Y145063D02*
Y152937D01*
X242815Y145063D02*
Y152937D01*
Y145063D02*
X246752D01*
X242815Y152937D02*
X246752D01*
X258366Y120857D02*
Y139755D01*
X234744Y120857D02*
Y139755D01*
Y120857D02*
X258366D01*
X234744Y139755D02*
X258366D01*
X255709Y147038D02*
X259646D01*
X255709Y154912D02*
X259646D01*
Y147038D02*
Y154912D01*
X255709Y147038D02*
Y154912D01*
X267922Y172047D02*
X275796D01*
X267922Y168110D02*
X275796D01*
Y172047D01*
X267922Y168110D02*
Y172047D01*
X276287Y189532D02*
Y193469D01*
X268413Y189532D02*
Y193469D01*
X276287D01*
X268413Y189532D02*
X276287D01*
X239063Y263064D02*
Y267001D01*
X246937Y263064D02*
Y267001D01*
X239063Y263064D02*
X246937D01*
X239063Y267001D02*
X246937D01*
X237294Y278526D02*
X241231D01*
X237294Y270652D02*
X241231D01*
X237294D02*
Y278526D01*
X241231Y270652D02*
Y278526D01*
X221190D02*
X225127D01*
X221190Y270652D02*
X225127D01*
X221190D02*
Y278526D01*
X225127Y270652D02*
Y278526D01*
X223326Y263064D02*
Y267001D01*
X215452Y263064D02*
Y267001D01*
X223326D01*
X215452Y263064D02*
X223326D01*
X42135Y17126D02*
Y25000D01*
X46072Y17126D02*
Y25000D01*
X42135D02*
X46072D01*
X42135Y17126D02*
X46072D01*
X49016Y9512D02*
X56890D01*
X49016Y13449D02*
X56890D01*
X49016Y9512D02*
Y13449D01*
X56890Y9512D02*
Y13449D01*
X77165Y7382D02*
Y15256D01*
X73228Y7382D02*
Y15256D01*
Y7382D02*
X77165D01*
X73228Y15256D02*
X77165D01*
X118602Y21850D02*
Y29724D01*
X114665Y21850D02*
Y29724D01*
Y21850D02*
X118602D01*
X114665Y29724D02*
X118602D01*
X323232Y66737D02*
X327168D01*
X323232Y58863D02*
X327168D01*
X323232D02*
Y66737D01*
X327168Y58863D02*
Y66737D01*
X323713Y70912D02*
X331587D01*
X323713Y74849D02*
X331587D01*
X323713Y70912D02*
Y74849D01*
X331587Y70912D02*
Y74849D01*
X298416Y60263D02*
Y68137D01*
X294479Y60263D02*
Y68137D01*
X298416D01*
X294479Y60263D02*
X298416D01*
X301271Y65032D02*
Y68969D01*
X309145Y65032D02*
Y68969D01*
X301271D02*
X309145D01*
X301271Y65032D02*
X309145D01*
X301271Y74401D02*
Y78338D01*
X309145Y74401D02*
Y78338D01*
X301271D02*
X309145D01*
X301271Y74401D02*
X309145D01*
X301894Y80808D02*
X305831D01*
X301894Y88682D02*
X305831D01*
X301894Y80808D02*
Y88682D01*
X305831Y80808D02*
Y88682D01*
X306726Y80808D02*
Y88682D01*
X310663Y80808D02*
Y88682D01*
X306726Y80808D02*
X310663D01*
X306726Y88682D02*
X310663D01*
X313386Y93274D02*
X321260D01*
X313386Y89337D02*
X321260D01*
X313386D02*
Y93274D01*
X321260Y89337D02*
Y93274D01*
X352264Y55879D02*
Y63753D01*
X348327Y55879D02*
Y63753D01*
X352264D01*
X348327Y55879D02*
X352264D01*
X347343Y67797D02*
Y75671D01*
X343406Y67797D02*
Y75671D01*
X347343D01*
X343406Y67797D02*
X347343D01*
X348237D02*
X352174D01*
X348237Y75671D02*
X352174D01*
X348237Y67797D02*
Y75671D01*
X352174Y67797D02*
Y75671D01*
X342487Y79716D02*
Y87590D01*
X338550Y79716D02*
Y87590D01*
X342487D01*
X338550Y79716D02*
X342487D01*
X343406D02*
X347343D01*
X343406Y87590D02*
X347343D01*
X343406Y79716D02*
Y87590D01*
X347343Y79716D02*
Y87590D01*
X348237Y87598D02*
X352174D01*
X348237Y79724D02*
X352174D01*
Y87598D01*
X348237Y79724D02*
Y87598D01*
X342511Y52560D02*
Y60434D01*
X338574Y52560D02*
Y60434D01*
X342511D01*
X338574Y52560D02*
X342511D01*
X343406Y55879D02*
X347343D01*
X343406Y63753D02*
X347343D01*
X343406Y55879D02*
Y63753D01*
X347343Y55879D02*
Y63753D01*
X350000Y49472D02*
Y53409D01*
X357874Y49472D02*
Y53409D01*
X350000D02*
X357874D01*
X350000Y49472D02*
X357874D01*
X318907Y23130D02*
X322844D01*
X318907Y31004D02*
X322844D01*
X318907Y23130D02*
Y31004D01*
X322844Y23130D02*
Y31004D01*
X323926Y23130D02*
X327863D01*
X323926Y31004D02*
X327863D01*
X323926Y23130D02*
Y31004D01*
X327863Y23130D02*
Y31004D01*
X323828Y11211D02*
X327765D01*
X323828Y19085D02*
X327765D01*
X323828Y11211D02*
Y19085D01*
X327765Y11211D02*
Y19085D01*
X340748Y21555D02*
Y25492D01*
X332874Y21555D02*
Y25492D01*
Y21555D02*
X340748D01*
X332874Y25492D02*
X340748D01*
X336417Y4748D02*
X344291D01*
X336417Y8685D02*
X344291D01*
Y4748D02*
Y8685D01*
X336417Y4748D02*
Y8685D01*
X41106Y136203D02*
G03*
X41106Y136203I-18898J0D01*
G01*
X316535Y84153D02*
Y121949D01*
Y84153D02*
X352756D01*
Y121949D01*
X316535D02*
X352756D01*
X332677Y103839D02*
X336614D01*
X334646Y101870D02*
Y105807D01*
X108150Y27836D02*
Y104215D01*
X4606D02*
X108150D01*
X4606Y27836D02*
X108150D01*
X4606D02*
Y104215D01*
X51457Y66026D02*
X59331D01*
X55394Y62089D02*
Y69963D01*
X236811Y363780D02*
X284055D01*
X236811D02*
Y393307D01*
X284055D01*
Y363780D02*
Y393307D01*
X258465Y372047D02*
X262402D01*
X260433Y370079D02*
Y374016D01*
X184744Y363780D02*
X231988D01*
X184744D02*
Y393307D01*
X231988D01*
Y363780D02*
Y393307D01*
X206398Y372047D02*
X210335D01*
X208366Y370079D02*
Y374016D01*
X261623Y124606D02*
X272647D01*
Y120669D02*
Y124606D01*
X261623Y120669D02*
X272647D01*
X261623D02*
Y124606D01*
X267135Y121457D02*
Y123819D01*
X265954Y122638D02*
X268316D01*
X268135Y140319D02*
Y142681D01*
X266954Y141500D02*
X269316D01*
X262623Y144256D02*
X273647D01*
Y138744D02*
Y144256D01*
X262623Y138744D02*
X273647D01*
X262623D02*
Y144256D01*
X268135Y133912D02*
Y136275D01*
X266954Y135093D02*
X269316D01*
X262623Y132338D02*
X273647D01*
X262623D02*
Y137849D01*
X273647D01*
Y132338D02*
Y137849D01*
X218388Y113969D02*
X229412D01*
Y110032D02*
Y113969D01*
X218388Y110032D02*
X229412D01*
X218388D02*
Y113969D01*
X223900Y110819D02*
Y113181D01*
X222719Y112000D02*
X225081D01*
X218388Y108968D02*
X229412D01*
Y105031D02*
Y108968D01*
X218388Y105031D02*
X229412D01*
X218388D02*
Y108968D01*
X223900Y105819D02*
Y108181D01*
X222719Y107000D02*
X225081D01*
X270571Y50000D02*
X285138D01*
X270571Y7480D02*
Y50000D01*
Y7480D02*
X285138D01*
Y50000D01*
X276476Y26772D02*
Y30709D01*
X274508Y28740D02*
X278445D01*
X159055Y39764D02*
X166929D01*
X162992Y35827D02*
Y43701D01*
X129528Y2362D02*
Y16142D01*
Y2362D02*
X196457D01*
Y74016D01*
X129528D02*
X196457D01*
X129528Y16142D02*
Y74016D01*
X212900Y176532D02*
X212900Y180468D01*
X210931Y178500D02*
X214868Y178500D01*
X201876Y171414D02*
Y185587D01*
Y171414D02*
X223530D01*
Y185587D01*
X201876D02*
X223530D01*
X218495Y168500D02*
X220857D01*
X219676Y167319D02*
Y169681D01*
X214164Y166531D02*
Y170468D01*
Y166531D02*
X225188D01*
Y170468D01*
X214164D02*
X225188D01*
X129488Y133244D02*
Y138756D01*
Y133244D02*
X140512D01*
Y138756D01*
X129488D02*
X140512D01*
X133819Y136000D02*
X136181D01*
X135000Y134819D02*
Y137181D01*
X129488Y126157D02*
Y131669D01*
Y126157D02*
X140512D01*
Y131669D01*
X129488D02*
X140512D01*
X133819Y128913D02*
X136181D01*
X135000Y127732D02*
Y130095D01*
X20817Y134811D02*
X23600Y137595D01*
X20817Y137595D02*
X23600Y134811D01*
X272146Y183504D02*
X274508D01*
X273327Y182323D02*
Y184685D01*
X267815Y181535D02*
Y185473D01*
Y181535D02*
X278839D01*
Y185473D01*
X267815D02*
X278839D01*
X272146Y178504D02*
X274508D01*
X273327Y177323D02*
Y179685D01*
X267815Y176535D02*
Y180472D01*
Y176535D02*
X278839D01*
Y180472D01*
X267815D02*
X278839D01*
X95177Y200376D02*
Y234234D01*
X136909D01*
Y200376D02*
Y234234D01*
X95177Y200376D02*
X136909D01*
X116043Y215336D02*
Y219273D01*
X114075Y217305D02*
X118012D01*
X82579Y228526D02*
Y232463D01*
X80610Y230494D02*
X84547D01*
X87697Y226951D02*
X93209D01*
Y234037D01*
X71949D02*
X93209D01*
X71949Y226951D02*
Y234037D01*
Y226951D02*
X87697D01*
X72835Y216437D02*
Y225886D01*
X78346D01*
Y210138D02*
Y225886D01*
X72835Y210138D02*
X78346D01*
X72835D02*
Y216437D01*
X75591Y216043D02*
Y219980D01*
X73622Y218012D02*
X77559D01*
X61793Y137106D02*
Y163878D01*
Y137106D02*
X76754D01*
Y163878D01*
X61793D02*
X76754D01*
X69274Y148524D02*
Y152461D01*
X67305Y150492D02*
X71242D01*
X56765Y157194D02*
X59127D01*
X57946Y156013D02*
Y158375D01*
X60702Y151682D02*
Y162706D01*
X55190Y151682D02*
X60702D01*
X55190D02*
Y162706D01*
X60702D01*
X50358Y157087D02*
X52720D01*
X51539Y155905D02*
Y158268D01*
X54295Y151575D02*
Y162598D01*
X48783Y151575D02*
X54295D01*
X48783D02*
Y162598D01*
X54295D01*
X84932Y137605D02*
X99105D01*
Y123432D02*
Y137605D01*
X84932Y123432D02*
X99105D01*
X84932D02*
Y137605D01*
X92019Y128550D02*
Y132487D01*
X90050Y130519D02*
X93987D01*
X86015Y179018D02*
X93889D01*
X89952Y175081D02*
Y182955D01*
X108062Y164845D02*
Y193191D01*
X71842D02*
X108062D01*
X71842Y164845D02*
Y193191D01*
Y164845D02*
X108062D01*
X90050Y153427D02*
X93987D01*
X92019Y151459D02*
Y155396D01*
X77845Y143585D02*
X106192D01*
Y152640D01*
Y163270D01*
X77845D02*
X106192D01*
X77845Y143585D02*
Y163270D01*
X149126Y141744D02*
X158575D01*
X149126D02*
Y147256D01*
X164874D01*
Y141744D02*
Y147256D01*
X158575Y141744D02*
X164874D01*
X155031Y144500D02*
X158968D01*
X157000Y142532D02*
Y146468D01*
X120973Y140426D02*
Y172710D01*
Y140426D02*
X146958D01*
Y172710D01*
X120973D02*
X146958D01*
X131997Y156568D02*
X135934D01*
X133966Y154599D02*
Y158536D01*
X113919Y158438D02*
X116281D01*
X115100Y157257D02*
Y159619D01*
X112345Y152926D02*
Y163950D01*
X117856D01*
Y152926D02*
Y163950D01*
X112345Y152926D02*
X117856D01*
X107457D02*
Y163950D01*
X111394D01*
Y152926D02*
Y163950D01*
X107457Y152926D02*
X111394D01*
X108244Y158438D02*
X110606D01*
X109425Y157257D02*
Y159619D01*
X86507Y138500D02*
X97531D01*
X86507D02*
Y142437D01*
X97531D01*
Y138500D02*
Y142437D01*
X92019Y139287D02*
Y141649D01*
X90838Y140469D02*
X93200D01*
X58814Y128354D02*
Y130716D01*
X57633Y129535D02*
X59995D01*
X56845Y135046D02*
X60782D01*
X56845Y124023D02*
Y135046D01*
Y124023D02*
X60782D01*
Y135046D01*
X43341Y123629D02*
Y135440D01*
X55940D01*
Y123629D02*
Y135440D01*
X43341Y123629D02*
X55940D01*
X49641Y128354D02*
Y130716D01*
X48460Y129535D02*
X50822D01*
X18110Y109914D02*
Y115426D01*
X7087D02*
X18110D01*
X7087Y109914D02*
Y115426D01*
Y109914D02*
X18110D01*
X11417Y112670D02*
X13780D01*
X12598Y111489D02*
Y113851D01*
X154696Y107115D02*
X160264Y101547D01*
X154696D02*
X160264Y107115D01*
X157480Y74822D02*
X186989Y104331D01*
X127971D02*
X157480Y74822D01*
X127971Y104331D02*
X157480Y133840D01*
X186989Y104331D01*
X183537Y115748D02*
X188261D01*
Y122835D01*
X183537D02*
X188261D01*
X183537Y115748D02*
Y122835D01*
X185899Y117717D02*
Y120866D01*
X184324Y119291D02*
X187474D01*
X201352Y114370D02*
X205289D01*
X203320Y112401D02*
Y116339D01*
X189147Y124213D02*
X217493D01*
X189147Y115157D02*
Y124213D01*
Y104527D02*
Y115157D01*
Y104527D02*
X217493D01*
Y124213D01*
X202264Y130816D02*
X204626D01*
X203445Y129635D02*
Y131997D01*
X206201Y125304D02*
Y136328D01*
X200689Y125304D02*
X206201D01*
X200689D02*
Y136328D01*
X206201D01*
X195857Y130816D02*
X198219D01*
X197038Y129635D02*
Y131997D01*
X199794Y125304D02*
Y136328D01*
X194282Y125304D02*
X199794D01*
X194282D02*
Y136328D01*
X199794D01*
X225188Y207668D02*
X236212D01*
Y203731D02*
Y207668D01*
X225188Y203731D02*
X236212D01*
X225188D02*
Y207668D01*
X230700Y204519D02*
Y206881D01*
X229519Y205700D02*
X231881D01*
X225000Y201969D02*
X236023D01*
Y198031D02*
Y201969D01*
X225000Y198031D02*
X236023D01*
X225000D02*
Y201969D01*
X230511Y198819D02*
Y201181D01*
X229330Y200000D02*
X231693D01*
X226083Y196752D02*
X265453D01*
X226083Y157382D02*
Y196752D01*
Y157382D02*
X265453D01*
Y196752D01*
X243799Y177067D02*
X247736D01*
X245768Y175098D02*
Y179035D01*
X215944Y204429D02*
X218306D01*
X217125Y203248D02*
Y205610D01*
X219881Y198917D02*
Y209941D01*
X214369Y198917D02*
X219881D01*
X214369D02*
Y209941D01*
X219881D01*
X208957Y204429D02*
X211319D01*
X210138Y203248D02*
Y205610D01*
X212894Y198917D02*
Y209941D01*
X207382Y198917D02*
X212894D01*
X207382D02*
Y209941D01*
X212894D01*
X212988Y190474D02*
X224012D01*
Y186538D02*
Y190474D01*
X212988Y186538D02*
X224012D01*
X212988D02*
Y190474D01*
X218500Y187325D02*
Y189687D01*
X217319Y188506D02*
X219681D01*
X206469Y166494D02*
X208831D01*
X207650Y165313D02*
Y167675D01*
X213162Y164526D02*
Y168463D01*
X202138D02*
X213162D01*
X202138Y164526D02*
Y168463D01*
Y164526D02*
X213162D01*
X212901Y153987D02*
X223925D01*
Y150050D02*
Y153987D01*
X212901Y150050D02*
X223925D01*
X212901D02*
Y153987D01*
X218413Y150838D02*
Y153200D01*
X217232Y152019D02*
X219595D01*
X212901Y149155D02*
X223925D01*
Y145219D02*
Y149155D01*
X212901Y145219D02*
X223925D01*
X212901D02*
Y149155D01*
X218413Y146006D02*
Y148368D01*
X217232Y147187D02*
X219595D01*
X237983Y143504D02*
Y154528D01*
X241920D01*
Y143504D02*
Y154528D01*
X237983Y143504D02*
X241920D01*
X238771Y149016D02*
X241133D01*
X239952Y147835D02*
Y150197D01*
X233152Y143504D02*
Y154528D01*
X237089D01*
Y143504D02*
Y154528D01*
X233152Y143504D02*
X237089D01*
X233939Y149016D02*
X236301D01*
X235120Y147835D02*
Y150197D01*
X228320Y143504D02*
Y154528D01*
X232257D01*
Y143504D02*
Y154528D01*
X228320Y143504D02*
X232257D01*
X229107Y149016D02*
X231469D01*
X230288Y147835D02*
Y150197D01*
X246752Y143488D02*
Y154512D01*
X242815Y143488D02*
X246752D01*
X242815D02*
Y154512D01*
X246752D01*
X243602Y149000D02*
X245965D01*
X244783Y147819D02*
Y150181D01*
X244587Y130306D02*
X248524D01*
X246555Y128338D02*
Y132275D01*
X232382Y140149D02*
X260728D01*
X232382Y131094D02*
Y140149D01*
Y120464D02*
Y131094D01*
Y120464D02*
X260728D01*
Y140149D01*
X255709Y145464D02*
Y156487D01*
X259646D01*
Y145464D02*
Y156487D01*
X255709Y145464D02*
X259646D01*
X256496Y150975D02*
X258858D01*
X257677Y149794D02*
Y152156D01*
X266347Y172047D02*
X277371D01*
Y168110D02*
Y172047D01*
X266347Y168110D02*
X277371D01*
X266347D02*
Y172047D01*
X271859Y168898D02*
Y171260D01*
X270678Y170079D02*
X273040D01*
X266838Y189532D02*
X277862D01*
X266838D02*
Y193469D01*
X277862D01*
Y189532D02*
Y193469D01*
X272350Y190319D02*
Y192681D01*
X271169Y191500D02*
X273531D01*
X242520Y280297D02*
X254331D01*
Y267699D02*
Y280297D01*
X242520Y267699D02*
X254331D01*
X242520D02*
Y280297D01*
X247244Y273998D02*
X249606D01*
X248425Y272817D02*
Y275179D01*
X253346Y211023D02*
Y259842D01*
X303346D01*
Y207086D02*
Y259842D01*
X253346Y207086D02*
X303346D01*
X253346D02*
Y211023D01*
X257677Y231496D02*
Y235433D01*
X255709Y233465D02*
X259646D01*
X241819Y265033D02*
X244181D01*
X243000Y263851D02*
Y266213D01*
X237488Y263064D02*
Y267001D01*
Y263064D02*
X248512D01*
Y267001D01*
X237488D02*
X248512D01*
X239263Y273407D02*
Y275769D01*
X238082Y274588D02*
X240444D01*
X237294Y280100D02*
X241231D01*
X237294Y269077D02*
Y280100D01*
Y269077D02*
X241231D01*
Y280100D01*
X263493Y275179D02*
Y279116D01*
X261525Y277148D02*
X265462D01*
X265068Y274392D02*
X271367D01*
Y279904D01*
X255619D02*
X271367D01*
X255619Y274392D02*
Y279904D01*
Y274392D02*
X265068D01*
X237264Y281723D02*
Y362038D01*
X277421D01*
Y281723D02*
Y362038D01*
X237264Y281723D02*
X277421D01*
X257382Y317905D02*
Y325779D01*
X253445Y321842D02*
X261319D01*
X185197Y281723D02*
Y362038D01*
X225354D01*
Y281723D02*
Y362038D01*
X185197Y281723D02*
X225354D01*
X205315Y317905D02*
Y325779D01*
X201378Y321842D02*
X209252D01*
X223158Y273408D02*
Y275770D01*
X221977Y274588D02*
X224340D01*
X221190Y280100D02*
X225127D01*
X221190Y269077D02*
Y280100D01*
Y269077D02*
X225127D01*
Y280100D01*
X218208Y265032D02*
X220570D01*
X219389Y263851D02*
Y266213D01*
X224901Y263064D02*
Y267001D01*
X213878D02*
X224901D01*
X213878Y263064D02*
Y267001D01*
Y263064D02*
X224901D01*
X207697Y268092D02*
Y279904D01*
X220295D01*
Y268092D02*
Y279904D01*
X207697Y268092D02*
X220295D01*
X213996Y272817D02*
Y275179D01*
X212815Y273998D02*
X215177D01*
X198928Y275179D02*
Y279116D01*
X196960Y277148D02*
X200897D01*
X191054Y279904D02*
X197353D01*
X191054Y274392D02*
Y279904D01*
Y274392D02*
X206802D01*
Y279904D01*
X197353D02*
X206802D01*
X112205Y292019D02*
Y299893D01*
X108268Y295956D02*
X116142D01*
X47244Y351074D02*
X177165D01*
Y240838D02*
Y351074D01*
X47244Y240838D02*
X177165D01*
X47244D02*
Y351074D01*
X110236Y370079D02*
Y374016D01*
X108268Y372047D02*
X112205D01*
X47244Y390945D02*
X67717D01*
X47244Y353150D02*
Y390945D01*
Y353150D02*
X173228D01*
Y390945D01*
X67717D02*
X173228D01*
X31890Y344646D02*
Y391890D01*
X2362Y344646D02*
X31890D01*
X2362D02*
Y391890D01*
X31890D01*
X23622Y366299D02*
Y370236D01*
X21654Y368268D02*
X25591D01*
X23622Y318751D02*
Y326625D01*
X19685Y322688D02*
X27559D01*
X2756Y301822D02*
X44488D01*
X2756D02*
Y343554D01*
X44488D01*
Y301822D02*
Y343554D01*
X23622Y275590D02*
Y283465D01*
X19685Y279528D02*
X27559D01*
X2756Y258661D02*
X44488D01*
X2756D02*
Y300394D01*
X44488D01*
Y258661D02*
Y300394D01*
X12357Y234234D02*
X70231D01*
Y167305D02*
Y234234D01*
X-1422Y167305D02*
X70231D01*
X-1422D02*
Y234234D01*
X12357D01*
X32042Y200770D02*
X39916D01*
X35979Y196833D02*
Y204707D01*
X35728Y23005D02*
Y25367D01*
X34547Y24186D02*
X36909D01*
X30217Y26942D02*
X41240D01*
Y21430D02*
Y26942D01*
X30217Y21430D02*
X41240D01*
X30217D02*
Y26942D01*
X35728Y16598D02*
Y18961D01*
X34547Y17779D02*
X36909D01*
X30217Y20535D02*
X41240D01*
Y15024D02*
Y20535D01*
X30217Y15024D02*
X41240D01*
X30217D02*
Y20535D01*
Y8617D02*
Y14129D01*
Y8617D02*
X41240D01*
Y14129D01*
X30217D02*
X41240D01*
X34547Y11373D02*
X36909D01*
X35728Y10192D02*
Y12554D01*
X42135Y15551D02*
Y26575D01*
X46072D01*
Y15551D02*
Y26575D01*
X42135Y15551D02*
X46072D01*
X42922Y21063D02*
X45284D01*
X44103Y19882D02*
Y22244D01*
X51969Y20643D02*
X54331D01*
X53150Y19462D02*
Y21824D01*
X46850Y14737D02*
X59449D01*
Y26548D01*
X46850D02*
X59449D01*
X46850Y14737D02*
Y26548D01*
X47441Y9512D02*
X58465D01*
X47441D02*
Y13449D01*
X58465D01*
Y9512D02*
Y13449D01*
X52953Y10299D02*
Y12661D01*
X51772Y11480D02*
X54134D01*
X77165Y5807D02*
Y16831D01*
X73228Y5807D02*
X77165D01*
X73228D02*
Y16831D01*
X77165D01*
X74016Y11319D02*
X76378D01*
X75197Y10138D02*
Y12500D01*
X94775Y5413D02*
Y8957D01*
X93003Y7185D02*
X96546D01*
X78436Y1280D02*
Y18406D01*
Y1280D02*
X111507D01*
Y18406D01*
X78436D02*
X111507D01*
X118602Y20275D02*
Y31299D01*
X114665Y20275D02*
X118602D01*
X114665D02*
Y31299D01*
X118602D01*
X115453Y25787D02*
X117815D01*
X116634Y24606D02*
Y26968D01*
X218799Y26083D02*
X238878D01*
Y4823D02*
Y26083D01*
X200295Y4823D02*
X238878D01*
X200295D02*
Y26083D01*
X218799D01*
X217618Y23327D02*
X221555D01*
X219587Y21358D02*
Y25295D01*
X218898Y38976D02*
X222835D01*
X220866Y37008D02*
Y40945D01*
X214961Y46457D02*
X226772D01*
X214961Y31496D02*
Y46457D01*
Y31496D02*
X226772D01*
Y46457D01*
X234753Y30315D02*
Y39764D01*
X229241Y30315D02*
X234753D01*
X229241D02*
Y46063D01*
X234753D01*
Y39764D02*
Y46063D01*
X231997Y36220D02*
Y40157D01*
X230029Y38189D02*
X233966D01*
X237598Y40354D02*
X239961D01*
X238780Y39173D02*
Y41535D01*
X236024Y34843D02*
Y45866D01*
X241535D01*
Y34843D02*
Y45866D01*
X236024Y34843D02*
X241535D01*
X252631Y40354D02*
X254993D01*
X253812Y39173D02*
Y41536D01*
X251056Y34843D02*
Y45866D01*
X256568D01*
Y34843D02*
Y45866D01*
X251056Y34843D02*
X256568D01*
X259037Y40354D02*
X261400D01*
X260218Y39173D02*
Y41536D01*
X257463Y34843D02*
Y45866D01*
X262974D01*
Y34843D02*
Y45866D01*
X257463Y34843D02*
X262974D01*
X265444Y40354D02*
X267806D01*
X266625Y39173D02*
Y41536D01*
X263869Y34843D02*
Y45866D01*
X269381D01*
Y34843D02*
Y45866D01*
X263869Y34843D02*
X269381D01*
X325200Y61619D02*
Y63981D01*
X324019Y62800D02*
X326381D01*
X323232Y68312D02*
X327168D01*
X323232Y57288D02*
Y68312D01*
Y57288D02*
X327168D01*
Y68312D01*
X341754Y56595D02*
Y68406D01*
X329155Y56595D02*
X341754D01*
X329155D02*
Y68406D01*
X341754D01*
X335454Y61319D02*
Y63681D01*
X334273Y62500D02*
X336635D01*
X322138Y70912D02*
X333162D01*
X322138D02*
Y74849D01*
X333162D01*
Y70912D02*
Y74849D01*
X327650Y71700D02*
Y74062D01*
X326469Y72881D02*
X328831D01*
X334800Y77319D02*
Y79681D01*
X333619Y78500D02*
X335981D01*
X329288Y75744D02*
X340312D01*
X329288D02*
Y81256D01*
X340312D01*
Y75744D02*
Y81256D01*
X293799Y54232D02*
X308366D01*
Y11713D02*
Y54232D01*
X293799Y11713D02*
X308366D01*
X293799D02*
Y54232D01*
X302461Y31004D02*
Y34941D01*
X300492Y32972D02*
X304429D01*
X298416Y58688D02*
Y69712D01*
X294479D02*
X298416D01*
X294479Y58688D02*
Y69712D01*
Y58688D02*
X298416D01*
X295267Y64200D02*
X297629D01*
X296448Y63019D02*
Y65381D01*
X310335Y58244D02*
Y63756D01*
X299311Y58244D02*
X310335D01*
X299311D02*
Y63756D01*
X310335D01*
X303642Y61000D02*
X306004D01*
X304823Y59819D02*
Y62181D01*
X304027Y67000D02*
X306389D01*
X305208Y65819D02*
Y68181D01*
X299696Y65032D02*
Y68969D01*
X310719D01*
Y65032D02*
Y68969D01*
X299696Y65032D02*
X310719D01*
X304027Y76370D02*
X306389D01*
X305208Y75188D02*
Y77551D01*
X299696Y74401D02*
Y78338D01*
X310719D01*
Y74401D02*
Y78338D01*
X299696Y74401D02*
X310719D01*
X303863Y83563D02*
Y85926D01*
X302682Y84745D02*
X305044D01*
X301894Y79233D02*
X305831D01*
X301894D02*
Y90256D01*
X305831D01*
Y79233D02*
Y90256D01*
X308695Y83563D02*
Y85926D01*
X307514Y84745D02*
X309876D01*
X306726Y90256D02*
X310663D01*
Y79233D02*
Y90256D01*
X306726Y79233D02*
X310663D01*
X306726D02*
Y90256D01*
X316142Y91305D02*
X318504D01*
X317323Y90124D02*
Y92487D01*
X322835Y89337D02*
Y93274D01*
X311811Y89337D02*
X322835D01*
X311811D02*
Y93274D01*
X322835D01*
X337598Y53543D02*
Y88189D01*
X311614Y53543D02*
X337598D01*
X311614D02*
Y88189D01*
X337598D01*
X322638Y70866D02*
X326575D01*
X324606Y68898D02*
Y72835D01*
X322441Y94169D02*
Y99680D01*
X311417Y94169D02*
X322441D01*
X311417D02*
Y99680D01*
X322441D01*
X315748Y96925D02*
X318110D01*
X316929Y95743D02*
Y98106D01*
X350295Y58635D02*
Y60997D01*
X349114Y59816D02*
X351476D01*
X348327Y54304D02*
X352264D01*
X348327D02*
Y65328D01*
X352264D01*
Y54304D02*
Y65328D01*
X345374Y70553D02*
Y72915D01*
X344193Y71734D02*
X346555D01*
X343406Y66222D02*
X347343D01*
X343406D02*
Y77246D01*
X347343D01*
Y66222D02*
Y77246D01*
X350206Y70553D02*
Y72915D01*
X349025Y71734D02*
X351387D01*
X348237Y66222D02*
X352174D01*
X348237D02*
Y77246D01*
X352174D01*
Y66222D02*
Y77246D01*
X340518Y82471D02*
Y84834D01*
X339337Y83653D02*
X341699D01*
X338550Y78141D02*
X342487D01*
X338550D02*
Y89164D01*
X342487D01*
Y78141D02*
Y89164D01*
X345374Y82471D02*
Y84834D01*
X344193Y83653D02*
X346555D01*
X343406Y78141D02*
X347343D01*
X343406D02*
Y89164D01*
X347343D01*
Y78141D02*
Y89164D01*
X350206Y82480D02*
Y84843D01*
X349025Y83661D02*
X351387D01*
X348237Y89173D02*
X352174D01*
Y78149D02*
Y89173D01*
X348237Y78149D02*
X352174D01*
X348237D02*
Y89173D01*
X340542Y55315D02*
Y57678D01*
X339361Y56497D02*
X341723D01*
X338574Y50985D02*
X342511D01*
X338574D02*
Y62008D01*
X342511D01*
Y50985D02*
Y62008D01*
X345374Y58635D02*
Y60997D01*
X344193Y59816D02*
X346555D01*
X343406Y54304D02*
X347343D01*
X343406D02*
Y65328D01*
X347343D01*
Y54304D02*
Y65328D01*
X353171Y71662D02*
X360258D01*
X353171D02*
Y87411D01*
X360258D01*
Y71662D02*
Y87411D01*
X356714Y78355D02*
Y80718D01*
X355533Y79536D02*
X357895D01*
X353261Y55020D02*
X360347D01*
X353261D02*
Y70768D01*
X360347D01*
Y55020D02*
Y70768D01*
X356804Y61712D02*
Y64075D01*
X355623Y62894D02*
X357985D01*
X352756Y51441D02*
X355118D01*
X353937Y50260D02*
Y52622D01*
X348425Y49472D02*
Y53409D01*
X359448D01*
Y49472D02*
Y53409D01*
X348425Y49472D02*
X359448D01*
X309556Y38583D02*
X315068D01*
X309556D02*
Y49606D01*
X315068D01*
Y38583D02*
Y49606D01*
X312312Y42913D02*
Y45276D01*
X311131Y44094D02*
X313493D01*
X315963Y38583D02*
X321474D01*
X315963D02*
Y49606D01*
X321474D01*
Y38583D02*
Y49606D01*
X318719Y42913D02*
Y45276D01*
X317537Y44094D02*
X319900D01*
X322369Y38583D02*
X327881D01*
X322369D02*
Y49606D01*
X327881D01*
Y38583D02*
Y49606D01*
X325125Y42913D02*
Y45276D01*
X323944Y44094D02*
X326306D01*
X312500Y21555D02*
X318012D01*
X312500D02*
Y32579D01*
X318012D01*
Y21555D02*
Y32579D01*
X315256Y25886D02*
Y28248D01*
X314075Y27067D02*
X316437D01*
X320875Y25885D02*
Y28248D01*
X319694Y27067D02*
X322056D01*
X318907Y21555D02*
X322844D01*
X318907D02*
Y32578D01*
X322844D01*
Y21555D02*
Y32578D01*
X325895Y25885D02*
Y28248D01*
X324714Y27067D02*
X327076D01*
X323926Y21555D02*
X327863D01*
X323926D02*
Y32578D01*
X327863D01*
Y21555D02*
Y32578D01*
X311909Y15148D02*
Y20660D01*
X322933D01*
Y15148D02*
Y20660D01*
X311909Y15148D02*
X322933D01*
X316240Y17904D02*
X318602D01*
X317421Y16723D02*
Y19085D01*
X325796Y13967D02*
Y16329D01*
X324615Y15148D02*
X326977D01*
X323828Y9636D02*
X327765D01*
X323828D02*
Y20660D01*
X327765D01*
Y9636D02*
Y20660D01*
X335630Y23523D02*
X337992D01*
X336811Y22342D02*
Y24704D01*
X342323Y21555D02*
Y25492D01*
X331299Y21555D02*
X342323D01*
X331299D02*
Y25492D01*
X342323D01*
X331041Y26386D02*
Y33473D01*
X346789D01*
Y26386D02*
Y33473D01*
X331041Y26386D02*
X346789D01*
X336947Y29930D02*
X340884D01*
X338915Y27961D02*
Y31898D01*
X331102Y9636D02*
Y20660D01*
X346063D01*
Y9636D02*
Y20660D01*
X331102Y9636D02*
X346063D01*
X336614Y15148D02*
X340551D01*
X338583Y13180D02*
Y17117D01*
X339173Y6716D02*
X341535D01*
X340354Y5535D02*
Y7897D01*
X334843Y4748D02*
Y8685D01*
X345866D01*
Y4748D02*
Y8685D01*
X334843Y4748D02*
X345866D01*
X41106Y136203D02*
G03*
X41106Y136203I-18898J0D01*
G01*
X316535Y84153D02*
Y121949D01*
X352756Y84153D02*
Y121949D01*
X316535D02*
X352756D01*
X316535Y84153D02*
X352756D01*
X4606Y27836D02*
Y104215D01*
X108150D01*
Y27836D02*
Y104215D01*
X4606Y27836D02*
X108150D01*
X236811Y363780D02*
X284055D01*
X236811Y393307D02*
X284055D01*
X236811Y363780D02*
Y393307D01*
X284055Y363780D02*
Y393307D01*
X184744Y363780D02*
X231988D01*
X184744Y393307D02*
X231988D01*
X184744Y363780D02*
Y393307D01*
X231988Y363780D02*
Y393307D01*
X261623Y124606D02*
X272647D01*
Y120669D02*
Y124606D01*
X261623Y120669D02*
X272647D01*
X261623D02*
Y124606D01*
X262623Y138744D02*
X273647D01*
Y144256D01*
X262623D02*
X273647D01*
X262623Y138744D02*
Y144256D01*
Y137849D02*
X273647D01*
X262623Y132338D02*
Y137849D01*
Y132338D02*
X273647D01*
Y137849D01*
X218388Y113969D02*
X229412D01*
Y110032D02*
Y113969D01*
X218388Y110032D02*
X229412D01*
X218388D02*
Y113969D01*
Y108968D02*
X229412D01*
Y105031D02*
Y108968D01*
X218388Y105031D02*
X229412D01*
X218388D02*
Y108968D01*
X270571Y7480D02*
Y50000D01*
X285138Y7480D02*
Y50000D01*
X270571Y7480D02*
X285138D01*
X270571Y50000D02*
X285138D01*
X129528Y16142D02*
Y74016D01*
Y2362D02*
X196457D01*
X129528Y74016D02*
X196457D01*
Y2362D02*
Y74016D01*
X129528Y2362D02*
Y16142D01*
X201876Y185587D02*
X223530D01*
Y171414D02*
Y185587D01*
X201876Y171414D02*
Y185587D01*
Y171414D02*
X223530D01*
X214164Y166531D02*
Y170468D01*
Y166531D02*
X225188D01*
Y170468D01*
X214164D02*
X225188D01*
X129488Y133244D02*
Y138756D01*
X140512D01*
Y133244D02*
Y138756D01*
X129488Y133244D02*
X140512D01*
X129488Y126157D02*
Y131669D01*
X140512D01*
Y126157D02*
Y131669D01*
X129488Y126157D02*
X140512D01*
X267815Y181535D02*
Y185473D01*
Y181535D02*
X278839D01*
Y185473D01*
X267815D02*
X278839D01*
X267815Y176535D02*
Y180472D01*
Y176535D02*
X278839D01*
Y180472D01*
X267815D02*
X278839D01*
X136909Y200376D02*
Y234234D01*
X95177D02*
X136909D01*
X95177Y200376D02*
X136909D01*
X95177D02*
Y234234D01*
X71949Y226951D02*
Y234037D01*
X87697Y226951D02*
X93209D01*
Y234037D01*
X71949Y226951D02*
X87697D01*
X71949Y234037D02*
X93209D01*
X72835Y225886D02*
X78346D01*
X72835Y216437D02*
Y225886D01*
Y210138D02*
Y216437D01*
Y210138D02*
X78346D01*
Y225886D01*
X61793Y137106D02*
Y163878D01*
X76754Y137106D02*
Y163878D01*
X61793Y137106D02*
X76754D01*
X61793Y163878D02*
X76754D01*
X55190Y151682D02*
Y162706D01*
Y151682D02*
X60702D01*
Y162706D01*
X55190D02*
X60702D01*
X48783Y151575D02*
Y162598D01*
Y151575D02*
X54295D01*
Y162598D01*
X48783D02*
X54295D01*
X84932Y137605D02*
X99105D01*
Y123432D02*
Y137605D01*
X84932Y123432D02*
X99105D01*
X84932D02*
Y137605D01*
X108062Y164845D02*
Y193191D01*
X71842D02*
X108062D01*
X71842Y164845D02*
Y193191D01*
Y164845D02*
X108062D01*
X77845Y143585D02*
X106192D01*
Y152640D01*
X77845Y143585D02*
Y163270D01*
X106192D01*
Y152640D02*
Y163270D01*
X149126Y141744D02*
Y147256D01*
Y141744D02*
X158575D01*
X164874D01*
Y147256D01*
X149126D02*
X164874D01*
X120973Y140426D02*
X146958D01*
X120973Y172710D02*
X146958D01*
X120973Y140426D02*
Y172710D01*
X146958Y140426D02*
Y172710D01*
X117856Y152926D02*
Y163950D01*
X112345D02*
X117856D01*
X112345Y152926D02*
Y163950D01*
Y152926D02*
X117856D01*
X107457D02*
Y163950D01*
X111394D01*
Y152926D02*
Y163950D01*
X107457Y152926D02*
X111394D01*
X86507Y138500D02*
X97531D01*
X86507D02*
Y142437D01*
X97531D01*
Y138500D02*
Y142437D01*
X56845Y135046D02*
X60782D01*
X56845Y124023D02*
Y135046D01*
Y124023D02*
X60782D01*
Y135046D01*
X55940Y123629D02*
Y135440D01*
X43341D02*
X55940D01*
X43341Y123629D02*
Y135440D01*
Y123629D02*
X55940D01*
X18110Y109914D02*
Y115426D01*
X7087Y109914D02*
X18110D01*
X7087D02*
Y115426D01*
X18110D01*
X127971Y104331D02*
X157480Y74822D01*
Y133840D02*
X186989Y104331D01*
X127971D02*
X157480Y133840D01*
Y74822D02*
X186989Y104331D01*
X183537Y115748D02*
X188261D01*
X183537D02*
Y122835D01*
X188261Y115748D02*
Y122835D01*
X183537D02*
X188261D01*
X189147Y124213D02*
X217493D01*
X189147Y115157D02*
Y124213D01*
X217493Y104527D02*
Y124213D01*
X189147Y104527D02*
X217493D01*
X189147D02*
Y115157D01*
X200689Y125304D02*
Y136328D01*
Y125304D02*
X206201D01*
Y136328D01*
X200689D02*
X206201D01*
X194282Y125304D02*
Y136328D01*
Y125304D02*
X199794D01*
Y136328D01*
X194282D02*
X199794D01*
X225188Y207668D02*
X236212D01*
Y203731D02*
Y207668D01*
X225188Y203731D02*
X236212D01*
X225188D02*
Y207668D01*
X225000Y201969D02*
X236023D01*
Y198031D02*
Y201969D01*
X225000Y198031D02*
X236023D01*
X225000D02*
Y201969D01*
X265453Y157382D02*
Y196752D01*
X226083Y157382D02*
X265453D01*
X226083D02*
Y196752D01*
X265453D01*
X214369Y198917D02*
Y209941D01*
Y198917D02*
X219881D01*
Y209941D01*
X214369D02*
X219881D01*
X207382Y198917D02*
Y209941D01*
Y198917D02*
X212894D01*
Y209941D01*
X207382D02*
X212894D01*
X212988Y190474D02*
X224012D01*
Y186538D02*
Y190474D01*
X212988Y186538D02*
X224012D01*
X212988D02*
Y190474D01*
X213162Y164526D02*
Y168463D01*
X202138D02*
X213162D01*
X202138Y164526D02*
Y168463D01*
Y164526D02*
X213162D01*
X212901Y153987D02*
X223925D01*
Y150050D02*
Y153987D01*
X212901Y150050D02*
X223925D01*
X212901D02*
Y153987D01*
Y149155D02*
X223925D01*
Y145219D02*
Y149155D01*
X212901Y145219D02*
X223925D01*
X212901D02*
Y149155D01*
X237983Y143504D02*
Y154528D01*
X241920D01*
Y143504D02*
Y154528D01*
X237983Y143504D02*
X241920D01*
X233152D02*
Y154528D01*
X237089D01*
Y143504D02*
Y154528D01*
X233152Y143504D02*
X237089D01*
X228320D02*
Y154528D01*
X232257D01*
Y143504D02*
Y154528D01*
X228320Y143504D02*
X232257D01*
X246752Y143488D02*
Y154512D01*
X242815Y143488D02*
X246752D01*
X242815D02*
Y154512D01*
X246752D01*
X232382Y140149D02*
X260728D01*
X232382Y131094D02*
Y140149D01*
X260728Y120464D02*
Y140149D01*
X232382Y120464D02*
X260728D01*
X232382D02*
Y131094D01*
X255709Y145464D02*
Y156487D01*
X259646D01*
Y145464D02*
Y156487D01*
X255709Y145464D02*
X259646D01*
X266347Y172047D02*
X277371D01*
Y168110D02*
Y172047D01*
X266347Y168110D02*
X277371D01*
X266347D02*
Y172047D01*
X266838Y189532D02*
X277862D01*
X266838D02*
Y193469D01*
X277862D01*
Y189532D02*
Y193469D01*
X242520Y267699D02*
X254331D01*
Y280297D01*
X242520D02*
X254331D01*
X242520Y267699D02*
Y280297D01*
X253346Y211023D02*
Y259842D01*
X303346Y207086D02*
Y259842D01*
X253346D02*
X303346D01*
X253346Y207086D02*
X303346D01*
X253346D02*
Y211023D01*
X237488Y263064D02*
Y267001D01*
Y263064D02*
X248512D01*
Y267001D01*
X237488D02*
X248512D01*
X237294Y280100D02*
X241231D01*
X237294Y269077D02*
Y280100D01*
Y269077D02*
X241231D01*
Y280100D01*
X255619Y279904D02*
X271367D01*
Y274392D02*
Y279904D01*
X265068Y274392D02*
X271367D01*
X255619D02*
X265068D01*
X255619D02*
Y279904D01*
X237264Y281723D02*
Y362038D01*
X277421Y281723D02*
Y362038D01*
X237264Y281723D02*
X277421D01*
X237264Y362038D02*
X277421D01*
X185197Y281723D02*
Y362038D01*
X225354Y281723D02*
Y362038D01*
X185197Y281723D02*
X225354D01*
X185197Y362038D02*
X225354D01*
X221190Y280100D02*
X225127D01*
X221190Y269077D02*
Y280100D01*
Y269077D02*
X225127D01*
Y280100D01*
X224901Y263064D02*
Y267001D01*
X213878D02*
X224901D01*
X213878Y263064D02*
Y267001D01*
Y263064D02*
X224901D01*
X220295Y268092D02*
Y279904D01*
X207697D02*
X220295D01*
X207697Y268092D02*
Y279904D01*
Y268092D02*
X220295D01*
X191054Y274392D02*
X206802D01*
X191054D02*
Y279904D01*
X197353D01*
X206802D01*
Y274392D02*
Y279904D01*
X47244Y240838D02*
Y351074D01*
X177165Y240838D02*
Y351074D01*
X47244Y240838D02*
X177165D01*
X47244Y351074D02*
X177165D01*
X47244Y353150D02*
Y390945D01*
Y353150D02*
X173228D01*
Y390945D01*
X47244D02*
X67717D01*
X173228D01*
X31890Y344646D02*
Y391890D01*
X2362Y344646D02*
Y391890D01*
Y344646D02*
X31890D01*
X2362Y391890D02*
X31890D01*
X2756Y301822D02*
Y343554D01*
X44488Y301822D02*
Y343554D01*
X2756D02*
X44488D01*
X2756Y301822D02*
X44488D01*
X2756Y258661D02*
Y300394D01*
X44488Y258661D02*
Y300394D01*
X2756D02*
X44488D01*
X2756Y258661D02*
X44488D01*
X-1422Y234234D02*
X12357D01*
X-1422Y167305D02*
X70231D01*
Y234234D01*
X-1422Y167305D02*
Y234234D01*
X12357D02*
X70231D01*
X30217Y21430D02*
X41240D01*
Y26942D01*
X30217D02*
X41240D01*
X30217Y21430D02*
Y26942D01*
Y15024D02*
X41240D01*
Y20535D01*
X30217D02*
X41240D01*
X30217Y15024D02*
Y20535D01*
Y8617D02*
Y14129D01*
X41240D01*
Y8617D02*
Y14129D01*
X30217Y8617D02*
X41240D01*
X42135Y15551D02*
Y26575D01*
X46072D01*
Y15551D02*
Y26575D01*
X42135Y15551D02*
X46072D01*
X46850Y14737D02*
X59449D01*
X46850D02*
Y26548D01*
X59449D01*
Y14737D02*
Y26548D01*
X47441Y9512D02*
X58465D01*
X47441D02*
Y13449D01*
X58465D01*
Y9512D02*
Y13449D01*
X77165Y5807D02*
Y16831D01*
X73228Y5807D02*
X77165D01*
X73228D02*
Y16831D01*
X77165D01*
X78436Y1280D02*
Y18406D01*
Y1280D02*
X111507D01*
Y18406D01*
X78436D02*
X111507D01*
X118602Y20275D02*
Y31299D01*
X114665Y20275D02*
X118602D01*
X114665D02*
Y31299D01*
X118602D01*
X218799Y26083D02*
X238878D01*
X200295Y4823D02*
X238878D01*
X200295D02*
Y26083D01*
X218799D01*
X238878Y4823D02*
Y26083D01*
X226772Y31496D02*
Y46457D01*
X214961D02*
X226772D01*
X214961Y31496D02*
X226772D01*
X214961D02*
Y46457D01*
X229241Y30315D02*
X234753D01*
Y39764D01*
Y46063D01*
X229241D02*
X234753D01*
X229241Y30315D02*
Y46063D01*
X241535Y34843D02*
Y45866D01*
X236024D02*
X241535D01*
X236024Y34843D02*
Y45866D01*
Y34843D02*
X241535D01*
X256568D02*
Y45866D01*
X251056D02*
X256568D01*
X251056Y34843D02*
Y45866D01*
Y34843D02*
X256568D01*
X262974D02*
Y45866D01*
X257463D02*
X262974D01*
X257463Y34843D02*
Y45866D01*
Y34843D02*
X262974D01*
X269381D02*
Y45866D01*
X263869D02*
X269381D01*
X263869Y34843D02*
Y45866D01*
Y34843D02*
X269381D01*
X323232Y68312D02*
X327168D01*
X323232Y57288D02*
Y68312D01*
Y57288D02*
X327168D01*
Y68312D01*
X329155Y56595D02*
Y68406D01*
Y56595D02*
X341754D01*
Y68406D01*
X329155D02*
X341754D01*
X322138Y70912D02*
X333162D01*
X322138D02*
Y74849D01*
X333162D01*
Y70912D02*
Y74849D01*
X329288Y81256D02*
X340312D01*
X329288Y75744D02*
Y81256D01*
Y75744D02*
X340312D01*
Y81256D01*
X263198Y121063D02*
Y123031D01*
X264182D01*
X264510Y122703D01*
Y122047D01*
X264182Y121719D01*
X263198D01*
X263854D02*
X264510Y121063D01*
X266478D02*
X265166D01*
X266478Y122375D01*
Y122703D01*
X266150Y123031D01*
X265494D01*
X265166Y122703D01*
X267134Y121063D02*
X267790D01*
X267462D01*
Y123031D01*
X267134Y122703D01*
X219963Y110425D02*
Y112393D01*
X220947D01*
X221275Y112065D01*
Y111409D01*
X220947Y111081D01*
X219963D01*
X220619D02*
X221275Y110425D01*
X221931D02*
X222586D01*
X222258D01*
Y112393D01*
X221931Y112065D01*
X223570D02*
X223898Y112393D01*
X224554D01*
X224882Y112065D01*
Y111737D01*
X224554Y111409D01*
X224226D01*
X224554D01*
X224882Y111081D01*
Y110753D01*
X224554Y110425D01*
X223898D01*
X223570Y110753D01*
X219963Y105425D02*
Y107393D01*
X220947D01*
X221275Y107065D01*
Y106409D01*
X220947Y106081D01*
X219963D01*
X220619D02*
X221275Y105425D01*
X221931D02*
X222586D01*
X222258D01*
Y107393D01*
X221931Y107065D01*
X224882Y107393D02*
X224226Y107065D01*
X223570Y106409D01*
Y105753D01*
X223898Y105425D01*
X224554D01*
X224882Y105753D01*
Y106081D01*
X224554Y106409D01*
X223570D01*
X217051Y168565D02*
X216723Y168893D01*
X216067D01*
X215739Y168565D01*
Y167253D01*
X216067Y166925D01*
X216723D01*
X217051Y167253D01*
X219019Y166925D02*
X217707D01*
X219019Y168237D01*
Y168565D01*
X218691Y168893D01*
X218035D01*
X217707Y168565D01*
X219675Y168893D02*
X220987D01*
Y168565D01*
X219675Y167253D01*
Y166925D01*
X269390Y181929D02*
Y183897D01*
X270374D01*
X270702Y183569D01*
Y182913D01*
X270374Y182585D01*
X269390D01*
X270046D02*
X270702Y181929D01*
X271358Y183897D02*
X272670D01*
Y183569D01*
X271358Y182257D01*
Y181929D01*
X269390Y176929D02*
Y178897D01*
X270374D01*
X270702Y178569D01*
Y177913D01*
X270374Y177585D01*
X269390D01*
X270046D02*
X270702Y176929D01*
X272670Y178897D02*
X272014Y178569D01*
X271358Y177913D01*
Y177257D01*
X271686Y176929D01*
X272342D01*
X272670Y177257D01*
Y177585D01*
X272342Y177913D01*
X271358D01*
X75198Y212106D02*
X77953D01*
Y213484D01*
X77494Y213943D01*
X75657D01*
X75198Y213484D01*
Y212106D01*
X77953Y216698D02*
Y214861D01*
X76116Y216698D01*
X75657D01*
X75198Y216239D01*
Y215320D01*
X75657Y214861D01*
X162906Y144107D02*
Y146862D01*
X161528D01*
X161069Y146403D01*
Y144566D01*
X161528Y144107D01*
X162906D01*
X158314D02*
X159232Y144566D01*
X160151Y145485D01*
Y146403D01*
X159691Y146862D01*
X158773D01*
X158314Y146403D01*
Y145944D01*
X158773Y145485D01*
X160151D01*
X109360Y155813D02*
X109032Y155485D01*
Y154829D01*
X109360Y154501D01*
X110672D01*
X111000Y154829D01*
Y155485D01*
X110672Y155813D01*
X109360Y156469D02*
X109032Y156797D01*
Y157453D01*
X109360Y157781D01*
X109688D01*
X110016Y157453D01*
X110344Y157781D01*
X110672D01*
X111000Y157453D01*
Y156797D01*
X110672Y156469D01*
X110344D01*
X110016Y156797D01*
X109688Y156469D01*
X109360D01*
X110016Y156797D02*
Y157453D01*
X94644Y140403D02*
X94972Y140075D01*
X95628D01*
X95956Y140403D01*
Y141715D01*
X95628Y142043D01*
X94972D01*
X94644Y141715D01*
X93988Y142043D02*
X93332D01*
X93660D01*
Y140075D01*
X93988Y140403D01*
X91364Y142043D02*
Y140075D01*
X92348Y141059D01*
X91036D01*
X57239Y133472D02*
X59207D01*
Y132488D01*
X58879Y132160D01*
X58223D01*
X57895Y132488D01*
Y133472D01*
Y132816D02*
X57239Y132160D01*
Y131504D02*
Y130848D01*
Y131176D01*
X59207D01*
X58879Y131504D01*
X57239Y128552D02*
Y129864D01*
X58551Y128552D01*
X58879D01*
X59207Y128880D01*
Y129536D01*
X58879Y129864D01*
X226763Y204125D02*
Y206093D01*
X227747D01*
X228075Y205765D01*
Y205109D01*
X227747Y204781D01*
X226763D01*
X227419D02*
X228075Y204125D01*
X228731D02*
X229387D01*
X229059D01*
Y206093D01*
X228731Y205765D01*
X230371D02*
X230699Y206093D01*
X231355D01*
X231683Y205765D01*
Y204453D01*
X231355Y204125D01*
X230699D01*
X230371Y204453D01*
Y205765D01*
X227886Y200065D02*
X227558Y200393D01*
X226902D01*
X226574Y200065D01*
Y198753D01*
X226902Y198425D01*
X227558D01*
X227886Y198753D01*
X229854Y198425D02*
X228542D01*
X229854Y199737D01*
Y200065D01*
X229526Y200393D01*
X228870D01*
X228542Y200065D01*
X231494Y198425D02*
Y200393D01*
X230510Y199409D01*
X231822D01*
X215875Y188571D02*
X215547Y188899D01*
X214891D01*
X214563Y188571D01*
Y187259D01*
X214891Y186931D01*
X215547D01*
X215875Y187259D01*
X216531Y186931D02*
X217187D01*
X216859D01*
Y188899D01*
X216531Y188571D01*
X219483Y188899D02*
X218171D01*
Y187915D01*
X218827Y188243D01*
X219155D01*
X219483Y187915D01*
Y187259D01*
X219155Y186931D01*
X218499D01*
X218171Y187259D01*
X210275Y166429D02*
X210603Y166101D01*
X211259D01*
X211587Y166429D01*
Y167741D01*
X211259Y168069D01*
X210603D01*
X210275Y167741D01*
X209619Y168069D02*
X208963D01*
X209291D01*
Y166101D01*
X209619Y166429D01*
X206667Y166101D02*
X207323Y166429D01*
X207979Y167085D01*
Y167741D01*
X207651Y168069D01*
X206995D01*
X206667Y167741D01*
Y167413D01*
X206995Y167085D01*
X207979D01*
X214476Y150444D02*
Y152412D01*
X215460D01*
X215788Y152084D01*
Y151428D01*
X215460Y151100D01*
X214476D01*
X215132D02*
X215788Y150444D01*
X216444Y150772D02*
X216772Y150444D01*
X217428D01*
X217756Y150772D01*
Y152084D01*
X217428Y152412D01*
X216772D01*
X216444Y152084D01*
Y151756D01*
X216772Y151428D01*
X217756D01*
X215788Y147252D02*
X215460Y147580D01*
X214804D01*
X214476Y147252D01*
Y145940D01*
X214804Y145612D01*
X215460D01*
X215788Y145940D01*
X216444Y145612D02*
X217100D01*
X216772D01*
Y147580D01*
X216444Y147252D01*
X218084Y147580D02*
X219396D01*
Y147252D01*
X218084Y145940D01*
Y145612D01*
X241527Y145079D02*
X239559D01*
Y146063D01*
X239887Y146391D01*
X240543D01*
X240871Y146063D01*
Y145079D01*
Y145735D02*
X241527Y146391D01*
Y147047D02*
Y147703D01*
Y147375D01*
X239559D01*
X239887Y147047D01*
Y148687D02*
X239559Y149015D01*
Y149671D01*
X239887Y149999D01*
X240215D01*
X240543Y149671D01*
X240871Y149999D01*
X241198D01*
X241527Y149671D01*
Y149015D01*
X241198Y148687D01*
X240871D01*
X240543Y149015D01*
X240215Y148687D01*
X239887D01*
X240543Y149015D02*
Y149671D01*
X236695Y145079D02*
X234727D01*
Y146063D01*
X235055Y146391D01*
X235711D01*
X236039Y146063D01*
Y145079D01*
Y145735D02*
X236695Y146391D01*
Y147047D02*
Y147703D01*
Y147375D01*
X234727D01*
X235055Y147047D01*
X234727Y148687D02*
Y149999D01*
X235055D01*
X236367Y148687D01*
X236695D01*
X231863Y145079D02*
X229895D01*
Y146063D01*
X230223Y146391D01*
X230879D01*
X231207Y146063D01*
Y145079D01*
Y145735D02*
X231863Y146391D01*
Y148359D02*
Y147047D01*
X230551Y148359D01*
X230223D01*
X229895Y148031D01*
Y147375D01*
X230223Y147047D01*
Y149015D02*
X229895Y149343D01*
Y149999D01*
X230223Y150327D01*
X231535D01*
X231863Y149999D01*
Y149343D01*
X231535Y149015D01*
X230223D01*
X243209Y152937D02*
X245177D01*
Y151953D01*
X244848Y151625D01*
X244193D01*
X243865Y151953D01*
Y152937D01*
Y152281D02*
X243209Y151625D01*
X244848Y150969D02*
X245177Y150641D01*
Y149985D01*
X244848Y149657D01*
X244521D01*
X244193Y149985D01*
X243865Y149657D01*
X243537D01*
X243209Y149985D01*
Y150641D01*
X243537Y150969D01*
X243865D01*
X244193Y150641D01*
X244521Y150969D01*
X244848D01*
X244193Y150641D02*
Y149985D01*
X257612Y148350D02*
X257284Y148022D01*
Y147366D01*
X257612Y147038D01*
X258924D01*
X259252Y147366D01*
Y148022D01*
X258924Y148350D01*
X259252Y150318D02*
Y149006D01*
X257940Y150318D01*
X257612D01*
X257284Y149990D01*
Y149334D01*
X257612Y149006D01*
X257284Y152286D02*
X257612Y151630D01*
X258268Y150974D01*
X258924D01*
X259252Y151302D01*
Y151958D01*
X258924Y152286D01*
X258596D01*
X258268Y151958D01*
Y150974D01*
X267922Y168504D02*
Y170472D01*
X268906D01*
X269234Y170144D01*
Y169488D01*
X268906Y169160D01*
X267922D01*
X268578D02*
X269234Y168504D01*
X269890D02*
X270546D01*
X270218D01*
Y170472D01*
X269890Y170144D01*
X271530Y168504D02*
X272186D01*
X271858D01*
Y170472D01*
X271530Y170144D01*
X274975Y191435D02*
X275303Y191107D01*
X275959D01*
X276287Y191435D01*
Y192746D01*
X275959Y193074D01*
X275303D01*
X274975Y192746D01*
X273007Y193074D02*
X274319D01*
X273007Y191762D01*
Y191435D01*
X273335Y191107D01*
X273991D01*
X274319Y191435D01*
X271039Y191107D02*
X272351D01*
Y192090D01*
X271695Y191762D01*
X271367D01*
X271039Y192090D01*
Y192746D01*
X271367Y193074D01*
X272023D01*
X272351Y192746D01*
X239063Y263458D02*
Y265425D01*
X240047D01*
X240375Y265098D01*
Y264442D01*
X240047Y264114D01*
X239063D01*
X239719D02*
X240375Y263458D01*
X241031Y265098D02*
X241359Y265425D01*
X242015D01*
X242343Y265098D01*
Y264770D01*
X242015Y264442D01*
X241687D01*
X242015D01*
X242343Y264114D01*
Y263786D01*
X242015Y263458D01*
X241359D01*
X241031Y263786D01*
X237688Y278526D02*
X239656D01*
Y277542D01*
X239328Y277214D01*
X238672D01*
X238344Y277542D01*
Y278526D01*
Y277870D02*
X237688Y277214D01*
X239656Y275246D02*
Y276558D01*
X238672D01*
X239000Y275902D01*
Y275574D01*
X238672Y275246D01*
X238016D01*
X237688Y275574D01*
Y276230D01*
X238016Y276558D01*
X269399Y276755D02*
Y279510D01*
X268021D01*
X267562Y279051D01*
Y277214D01*
X268021Y276755D01*
X269399D01*
X265266Y279510D02*
Y276755D01*
X266644Y278132D01*
X264807D01*
X221584Y278526D02*
X223552D01*
Y277542D01*
X223224Y277214D01*
X222568D01*
X222240Y277542D01*
Y278526D01*
Y277870D02*
X221584Y277214D01*
Y275574D02*
X223552D01*
X222568Y276558D01*
Y275246D01*
X223326Y266607D02*
Y264639D01*
X222342D01*
X222014Y264967D01*
Y265623D01*
X222342Y265951D01*
X223326D01*
X222670D02*
X222014Y266607D01*
X220047D02*
X221358D01*
X220047Y265295D01*
Y264967D01*
X220375Y264639D01*
X221030D01*
X221358Y264967D01*
X193023Y277540D02*
Y274785D01*
X194400D01*
X194859Y275245D01*
Y277081D01*
X194400Y277540D01*
X193023D01*
X195778Y277081D02*
X196237Y277540D01*
X197155D01*
X197614Y277081D01*
Y276622D01*
X197155Y276163D01*
X196696D01*
X197155D01*
X197614Y275704D01*
Y275245D01*
X197155Y274785D01*
X196237D01*
X195778Y275245D01*
X45678Y17126D02*
X43710D01*
Y18110D01*
X44038Y18438D01*
X44694D01*
X45022Y18110D01*
Y17126D01*
Y17782D02*
X45678Y18438D01*
Y19094D02*
Y19750D01*
Y19422D01*
X43710D01*
X44038Y19094D01*
X45350Y20734D02*
X45678Y21062D01*
Y21718D01*
X45350Y22046D01*
X44038D01*
X43710Y21718D01*
Y21062D01*
X44038Y20734D01*
X44366D01*
X44694Y21062D01*
Y22046D01*
X56890Y13055D02*
Y11087D01*
X55906D01*
X55578Y11415D01*
Y12071D01*
X55906Y12399D01*
X56890D01*
X56234D02*
X55578Y13055D01*
X53610D02*
X54922D01*
X53610Y11743D01*
Y11415D01*
X53938Y11087D01*
X54594D01*
X54922Y11415D01*
X51642Y13055D02*
X52954D01*
X51642Y11743D01*
Y11415D01*
X51970Y11087D01*
X52626D01*
X52954Y11415D01*
X73622Y15256D02*
X75590D01*
Y14272D01*
X75262Y13944D01*
X74606D01*
X74278Y14272D01*
Y15256D01*
Y14600D02*
X73622Y13944D01*
Y13288D02*
Y12632D01*
Y12960D01*
X75590D01*
X75262Y13288D01*
X73622Y10664D02*
X75590D01*
X74606Y11648D01*
Y10336D01*
X115059Y29724D02*
X117027D01*
Y28740D01*
X116699Y28412D01*
X116043D01*
X115715Y28740D01*
Y29724D01*
Y29068D02*
X115059Y28412D01*
Y27756D02*
Y27100D01*
Y27428D01*
X117027D01*
X116699Y27756D01*
X117027Y24804D02*
Y26116D01*
X116043D01*
X116371Y25460D01*
Y25132D01*
X116043Y24804D01*
X115387D01*
X115059Y25132D01*
Y25788D01*
X115387Y26116D01*
X232390Y44094D02*
X229635D01*
Y42717D01*
X230094Y42258D01*
X231931D01*
X232390Y42717D01*
Y44094D01*
X229635Y41339D02*
Y40421D01*
Y40880D01*
X232390D01*
X231931Y41339D01*
X329894Y90106D02*
X331862D01*
Y89122D01*
X331534Y88794D01*
X330878D01*
X330550Y89122D01*
Y90106D01*
Y89450D02*
X329894Y88794D01*
X331534Y88138D02*
X331862Y87810D01*
Y87155D01*
X331534Y86826D01*
X331206D01*
X330878Y87155D01*
Y87483D01*
Y87155D01*
X330550Y86826D01*
X330222D01*
X329894Y87155D01*
Y87810D01*
X330222Y88138D01*
X331534Y86171D02*
X331862Y85843D01*
Y85187D01*
X331534Y84859D01*
X331206D01*
X330878Y85187D01*
Y85515D01*
Y85187D01*
X330550Y84859D01*
X330222D01*
X329894Y85187D01*
Y85843D01*
X330222Y86171D01*
X331587Y74456D02*
Y72488D01*
X330603D01*
X330275Y72816D01*
Y73472D01*
X330603Y73800D01*
X331587D01*
X330931D02*
X330275Y74456D01*
X329619Y72816D02*
X329291Y72488D01*
X328635D01*
X328307Y72816D01*
Y73144D01*
X328635Y73472D01*
X328963D01*
X328635D01*
X328307Y73800D01*
Y74128D01*
X328635Y74456D01*
X329291D01*
X329619Y74128D01*
X327651Y72488D02*
X326339D01*
Y72816D01*
X327651Y74128D01*
Y74456D01*
X308366Y11713D02*
Y54232D01*
X293799Y11713D02*
Y54232D01*
Y11713D02*
X308366D01*
X293799Y54232D02*
X308366D01*
X298416Y58688D02*
Y69712D01*
X294479D02*
X298416D01*
X294479Y58688D02*
Y69712D01*
Y58688D02*
X298416D01*
X310335Y58244D02*
Y63756D01*
X299311D02*
X310335D01*
X299311Y58244D02*
Y63756D01*
Y58244D02*
X310335D01*
X299696Y65032D02*
Y68969D01*
X310719D01*
Y65032D02*
Y68969D01*
X299696Y65032D02*
X310719D01*
X299696Y74401D02*
Y78338D01*
X310719D01*
Y74401D02*
Y78338D01*
X299696Y74401D02*
X310719D01*
X301894Y79233D02*
X305831D01*
X301894D02*
Y90256D01*
X305831D01*
Y79233D02*
Y90256D01*
X306726D02*
X310663D01*
Y79233D02*
Y90256D01*
X306726Y79233D02*
X310663D01*
X306726D02*
Y90256D01*
X322835Y89337D02*
Y93274D01*
X311811Y89337D02*
X322835D01*
X311811D02*
Y93274D01*
X322835D01*
X311614Y88189D02*
X337598D01*
X311614Y53543D02*
Y88189D01*
Y53543D02*
X337598D01*
Y88189D01*
X322441Y94169D02*
Y99680D01*
X311417D02*
X322441D01*
X311417Y94169D02*
Y99680D01*
Y94169D02*
X322441D01*
X348327Y54304D02*
X352264D01*
X348327D02*
Y65328D01*
X352264D01*
Y54304D02*
Y65328D01*
X343406Y66222D02*
X347343D01*
X343406D02*
Y77246D01*
X347343D01*
Y66222D02*
Y77246D01*
X348237Y66222D02*
X352174D01*
X348237D02*
Y77246D01*
X352174D01*
Y66222D02*
Y77246D01*
X338550Y78141D02*
X342487D01*
X338550D02*
Y89164D01*
X342487D01*
Y78141D02*
Y89164D01*
X343406Y78141D02*
X347343D01*
X343406D02*
Y89164D01*
X347343D01*
Y78141D02*
Y89164D01*
X348237Y89173D02*
X352174D01*
Y78149D02*
Y89173D01*
X348237Y78149D02*
X352174D01*
X348237D02*
Y89173D01*
X338574Y50985D02*
X342511D01*
X338574D02*
Y62008D01*
X342511D01*
Y50985D02*
Y62008D01*
X343406Y54304D02*
X347343D01*
X343406D02*
Y65328D01*
X347343D01*
Y54304D02*
Y65328D01*
X353171Y71662D02*
X360258D01*
Y87411D01*
X353171D02*
X360258D01*
X353171Y71662D02*
Y87411D01*
X353261Y55020D02*
X360347D01*
Y70768D01*
X353261D02*
X360347D01*
X353261Y55020D02*
Y70768D01*
X348425Y49472D02*
Y53409D01*
X359448D01*
Y49472D02*
Y53409D01*
X348425Y49472D02*
X359448D01*
X309556Y38583D02*
X315068D01*
Y49606D01*
X309556D02*
X315068D01*
X309556Y38583D02*
Y49606D01*
X315963Y38583D02*
X321474D01*
Y49606D01*
X315963D02*
X321474D01*
X315963Y38583D02*
Y49606D01*
X322369Y38583D02*
X327881D01*
Y49606D01*
X322369D02*
X327881D01*
X322369Y38583D02*
Y49606D01*
X312500Y21555D02*
X318012D01*
Y32579D01*
X312500D02*
X318012D01*
X312500Y21555D02*
Y32579D01*
X318907Y21555D02*
X322844D01*
X318907D02*
Y32578D01*
X322844D01*
Y21555D02*
Y32578D01*
X323926Y21555D02*
X327863D01*
X323926D02*
Y32578D01*
X327863D01*
Y21555D02*
Y32578D01*
X311909Y15148D02*
Y20660D01*
Y15148D02*
X322933D01*
Y20660D01*
X311909D02*
X322933D01*
X323828Y9636D02*
X327765D01*
X323828D02*
Y20660D01*
X327765D01*
Y9636D02*
Y20660D01*
X342323Y21555D02*
Y25492D01*
X331299Y21555D02*
X342323D01*
X331299D02*
Y25492D01*
X342323D01*
X331041Y26386D02*
X346789D01*
Y33473D01*
X331041Y26386D02*
Y33473D01*
X346789D01*
X331102Y9636D02*
X346063D01*
Y20660D01*
X331102D02*
X346063D01*
X331102Y9636D02*
Y20660D01*
X334843Y4748D02*
Y8685D01*
X345866D01*
Y4748D02*
Y8685D01*
X334843Y4748D02*
X345866D01*
X294873Y60263D02*
X296841D01*
Y61247D01*
X296513Y61575D01*
X295857D01*
X295529Y61247D01*
Y60263D01*
Y60919D02*
X294873Y61575D01*
Y63543D02*
Y62231D01*
X296185Y63543D01*
X296513D01*
X296841Y63215D01*
Y62559D01*
X296513Y62231D01*
X296841Y65511D02*
X296513Y64855D01*
X295857Y64199D01*
X295201D01*
X294873Y64527D01*
Y65183D01*
X295201Y65511D01*
X295529D01*
X295857Y65183D01*
Y64199D01*
X301271Y68575D02*
Y66607D01*
X302255D01*
X302583Y66935D01*
Y67591D01*
X302255Y67919D01*
X301271D01*
X301927D02*
X302583Y68575D01*
X304551D02*
X303239D01*
X304551Y67263D01*
Y66935D01*
X304223Y66607D01*
X303567D01*
X303239Y66935D01*
X305206Y68247D02*
X305535Y68575D01*
X306190D01*
X306518Y68247D01*
Y66935D01*
X306190Y66607D01*
X305535D01*
X305206Y66935D01*
Y67263D01*
X305535Y67591D01*
X306518D01*
X301271Y77944D02*
Y75976D01*
X302255D01*
X302583Y76304D01*
Y76960D01*
X302255Y77288D01*
X301271D01*
X301927D02*
X302583Y77944D01*
X304551D02*
X303239D01*
X304551Y76632D01*
Y76304D01*
X304222Y75976D01*
X303567D01*
X303239Y76304D01*
X305206D02*
X305534Y75976D01*
X306190D01*
X306518Y76304D01*
Y76632D01*
X306190Y76960D01*
X306518Y77288D01*
Y77616D01*
X306190Y77944D01*
X305534D01*
X305206Y77616D01*
Y77288D01*
X305534Y76960D01*
X305206Y76632D01*
Y76304D01*
X305534Y76960D02*
X306190D01*
X302288Y80808D02*
X304256D01*
Y81791D01*
X303928Y82119D01*
X303272D01*
X302944Y81791D01*
Y80808D01*
Y81463D02*
X302288Y82119D01*
Y84087D02*
Y82775D01*
X303600Y84087D01*
X303928D01*
X304256Y83759D01*
Y83103D01*
X303928Y82775D01*
X304256Y86055D02*
Y84743D01*
X303272D01*
X303600Y85399D01*
Y85727D01*
X303272Y86055D01*
X302616D01*
X302288Y85727D01*
Y85071D01*
X302616Y84743D01*
X308629Y87370D02*
X308301Y87697D01*
Y88354D01*
X308629Y88681D01*
X309941D01*
X310269Y88354D01*
Y87697D01*
X309941Y87370D01*
X308629Y86714D02*
X308301Y86386D01*
Y85730D01*
X308629Y85402D01*
X308958D01*
X309285Y85730D01*
Y86058D01*
Y85730D01*
X309613Y85402D01*
X309941D01*
X310269Y85730D01*
Y86386D01*
X309941Y86714D01*
Y84746D02*
X310269Y84418D01*
Y83762D01*
X309941Y83434D01*
X308629D01*
X308301Y83762D01*
Y84418D01*
X308629Y84746D01*
X308958D01*
X309285Y84418D01*
Y83434D01*
X319948Y91370D02*
X320276Y91698D01*
X320932D01*
X321260Y91370D01*
Y90059D01*
X320932Y89731D01*
X320276D01*
X319948Y90059D01*
X318308Y89731D02*
Y91698D01*
X319292Y90715D01*
X317980D01*
X317324Y91370D02*
X316996Y91698D01*
X316340D01*
X316012Y91370D01*
Y90059D01*
X316340Y89731D01*
X316996D01*
X317324Y90059D01*
Y91370D01*
X350360Y57191D02*
X350688Y56863D01*
Y56207D01*
X350360Y55879D01*
X349048D01*
X348721Y56207D01*
Y56863D01*
X349048Y57191D01*
X348721Y58831D02*
X350688D01*
X349704Y57847D01*
Y59159D01*
X348721Y60799D02*
X350688D01*
X349704Y59815D01*
Y61127D01*
X345439Y69109D02*
X345767Y68781D01*
Y68125D01*
X345439Y67797D01*
X344127D01*
X343799Y68125D01*
Y68781D01*
X344127Y69109D01*
X345439Y69765D02*
X345767Y70093D01*
Y70749D01*
X345439Y71077D01*
X345111D01*
X344783Y70749D01*
Y70421D01*
Y70749D01*
X344455Y71077D01*
X344127D01*
X343799Y70749D01*
Y70093D01*
X344127Y69765D01*
X345767Y73045D02*
Y71733D01*
X344783D01*
X345111Y72389D01*
Y72717D01*
X344783Y73045D01*
X344127D01*
X343799Y72717D01*
Y72061D01*
X344127Y71733D01*
X354394Y84394D02*
X356362D01*
Y85378D01*
X356034Y85706D01*
X355378D01*
X355050Y85378D01*
Y84394D01*
Y85050D02*
X354394Y85706D01*
Y87673D02*
Y86362D01*
X355706Y87673D01*
X356034D01*
X356362Y87345D01*
Y86690D01*
X356034Y86362D01*
X356362Y88329D02*
Y89641D01*
X356034D01*
X354722Y88329D01*
X354394D01*
X340583Y81027D02*
X340911Y80699D01*
Y80044D01*
X340583Y79716D01*
X339271D01*
X338943Y80044D01*
Y80699D01*
X339271Y81027D01*
X340583Y81683D02*
X340911Y82011D01*
Y82667D01*
X340583Y82995D01*
X340255D01*
X339927Y82667D01*
Y82339D01*
Y82667D01*
X339599Y82995D01*
X339271D01*
X338943Y82667D01*
Y82011D01*
X339271Y81683D01*
X340583Y83651D02*
X340911Y83979D01*
Y84635D01*
X340583Y84963D01*
X340255D01*
X339927Y84635D01*
Y84307D01*
Y84635D01*
X339599Y84963D01*
X339271D01*
X338943Y84635D01*
Y83979D01*
X339271Y83651D01*
X350894Y91394D02*
X352862D01*
Y92378D01*
X352534Y92706D01*
X351878D01*
X351550Y92378D01*
Y91394D01*
Y92050D02*
X350894Y92706D01*
Y94674D02*
Y93362D01*
X352206Y94674D01*
X352534D01*
X352862Y94345D01*
Y93690D01*
X352534Y93362D01*
Y95329D02*
X352862Y95657D01*
Y96313D01*
X352534Y96641D01*
X352206D01*
X351878Y96313D01*
Y95985D01*
Y96313D01*
X351550Y96641D01*
X351222D01*
X350894Y96313D01*
Y95657D01*
X351222Y95329D01*
X351781Y87598D02*
X349813D01*
Y86615D01*
X350141Y86286D01*
X350797D01*
X351125Y86615D01*
Y87598D01*
Y86942D02*
X351781Y86286D01*
Y84319D02*
Y85631D01*
X350469Y84319D01*
X350141D01*
X349813Y84647D01*
Y85303D01*
X350141Y85631D01*
X351781Y82679D02*
X349813D01*
X350797Y83663D01*
Y82351D01*
X340607Y53871D02*
X340935Y53543D01*
Y52887D01*
X340607Y52560D01*
X339296D01*
X338967Y52887D01*
Y53543D01*
X339296Y53871D01*
X338967Y55511D02*
X340935D01*
X339951Y54527D01*
Y55839D01*
X340607Y56495D02*
X340935Y56823D01*
Y57479D01*
X340607Y57807D01*
X340280D01*
X339951Y57479D01*
Y57151D01*
Y57479D01*
X339623Y57807D01*
X339296D01*
X338967Y57479D01*
Y56823D01*
X339296Y56495D01*
X343799Y55879D02*
X345767D01*
Y56863D01*
X345439Y57191D01*
X344783D01*
X344455Y56863D01*
Y55879D01*
Y56535D02*
X343799Y57191D01*
X345439Y57847D02*
X345767Y58175D01*
Y58831D01*
X345439Y59159D01*
X345111D01*
X344783Y58831D01*
Y58503D01*
Y58831D01*
X344455Y59159D01*
X344127D01*
X343799Y58831D01*
Y58175D01*
X344127Y57847D01*
X343799Y59815D02*
Y60471D01*
Y60143D01*
X345767D01*
X345439Y59815D01*
X350000Y53016D02*
Y51048D01*
X350984D01*
X351312Y51376D01*
Y52032D01*
X350984Y52360D01*
X350000D01*
X350656D02*
X351312Y53016D01*
X351968Y51376D02*
X352295Y51048D01*
X352951D01*
X353279Y51376D01*
Y51704D01*
X352951Y52032D01*
X352624D01*
X352951D01*
X353279Y52360D01*
Y52688D01*
X352951Y53016D01*
X352295D01*
X351968Y52688D01*
X353935Y51376D02*
X354263Y51048D01*
X354919D01*
X355247Y51376D01*
Y52688D01*
X354919Y53016D01*
X354263D01*
X353935Y52688D01*
Y51376D01*
X319300Y23130D02*
X321268D01*
Y24114D01*
X320940Y24442D01*
X320284D01*
X319956Y24114D01*
Y23130D01*
Y23786D02*
X319300Y24442D01*
X320940Y25097D02*
X321268Y25425D01*
Y26081D01*
X320940Y26409D01*
X320612D01*
X320284Y26081D01*
Y25753D01*
Y26081D01*
X319956Y26409D01*
X319628D01*
X319300Y26081D01*
Y25425D01*
X319628Y25097D01*
X319300Y28377D02*
Y27065D01*
X320612Y28377D01*
X320940D01*
X321268Y28049D01*
Y27393D01*
X320940Y27065D01*
X324320Y23130D02*
X326288D01*
Y24114D01*
X325960Y24442D01*
X325304D01*
X324976Y24114D01*
Y23130D01*
Y23786D02*
X324320Y24442D01*
X325960Y25097D02*
X326288Y25425D01*
Y26081D01*
X325960Y26409D01*
X325632D01*
X325304Y26081D01*
Y25753D01*
Y26081D01*
X324976Y26409D01*
X324648D01*
X324320Y26081D01*
Y25425D01*
X324648Y25097D01*
X326288Y28377D02*
Y27065D01*
X325304D01*
X325632Y27721D01*
Y28049D01*
X325304Y28377D01*
X324648D01*
X324320Y28049D01*
Y27393D01*
X324648Y27065D01*
X324221Y11211D02*
X326189D01*
Y12195D01*
X325861Y12523D01*
X325205D01*
X324877Y12195D01*
Y11211D01*
Y11867D02*
X324221Y12523D01*
X325861Y13179D02*
X326189Y13507D01*
Y14163D01*
X325861Y14491D01*
X325533D01*
X325205Y14163D01*
Y13835D01*
Y14163D01*
X324877Y14491D01*
X324549D01*
X324221Y14163D01*
Y13507D01*
X324549Y13179D01*
X324221Y16131D02*
X326189D01*
X325205Y15147D01*
Y16459D01*
X340748Y21948D02*
Y23916D01*
X339764D01*
X339436Y23588D01*
Y22932D01*
X339764Y22604D01*
X340748D01*
X340092D02*
X339436Y21948D01*
X338780Y23588D02*
X338452Y23916D01*
X337796D01*
X337468Y23588D01*
Y23260D01*
X337796Y22932D01*
X338124D01*
X337796D01*
X337468Y22604D01*
Y22276D01*
X337796Y21948D01*
X338452D01*
X338780Y22276D01*
X335500Y23916D02*
X336156Y23588D01*
X336812Y22932D01*
Y22276D01*
X336484Y21948D01*
X335828D01*
X335500Y22276D01*
Y22604D01*
X335828Y22932D01*
X336812D01*
X337729Y6651D02*
X337401Y6323D01*
X336745D01*
X336417Y6651D01*
Y7963D01*
X336745Y8291D01*
X337401D01*
X337729Y7963D01*
X339369Y8291D02*
Y6323D01*
X338385Y7307D01*
X339697D01*
X341665Y6323D02*
X340353D01*
Y7307D01*
X341009Y6979D01*
X341337D01*
X341665Y7307D01*
Y7963D01*
X341337Y8291D01*
X340681D01*
X340353Y7963D01*
D16*
X102255Y145947D02*
G03*
X102255Y145947I-394J0D01*
G01*
X193871Y121850D02*
G03*
X193871Y121850I-394J0D01*
G01*
X237106Y137786D02*
G03*
X237106Y137786I-394J0D01*
G01*
D17*
X265050Y141630D02*
X264591Y142090D01*
X263673D01*
X263214Y141630D01*
Y139794D01*
X263673Y139335D01*
X264591D01*
X265050Y139794D01*
X265969Y141630D02*
X266428Y142090D01*
X267346D01*
X267805Y141630D01*
Y141171D01*
X267346Y140712D01*
X266887D01*
X267346D01*
X267805Y140253D01*
Y139794D01*
X267346Y139335D01*
X266428D01*
X265969Y139794D01*
X270560Y139335D02*
X268724D01*
X270560Y141171D01*
Y141630D01*
X270101Y142090D01*
X269183D01*
X268724Y141630D01*
X271219Y134963D02*
X271679Y134504D01*
X272597D01*
X273056Y134963D01*
Y136800D01*
X272597Y137259D01*
X271679D01*
X271219Y136800D01*
X270301Y134963D02*
X269842Y134504D01*
X268924D01*
X268464Y134963D01*
Y135422D01*
X268924Y135881D01*
X269383D01*
X268924D01*
X268464Y136340D01*
Y136800D01*
X268924Y137259D01*
X269842D01*
X270301Y136800D01*
X267546Y137259D02*
X266628D01*
X267087D01*
Y134504D01*
X267546Y134963D01*
X131915Y136130D02*
X131456Y136590D01*
X130538D01*
X130079Y136130D01*
Y134294D01*
X130538Y133835D01*
X131456D01*
X131915Y134294D01*
X132834Y133835D02*
X133752D01*
X133293D01*
Y136590D01*
X132834Y136130D01*
X135130D02*
X135589Y136590D01*
X136507D01*
X136966Y136130D01*
Y134294D01*
X136507Y133835D01*
X135589D01*
X135130Y134294D01*
Y136130D01*
X131915Y129044D02*
X131456Y129503D01*
X130538D01*
X130079Y129044D01*
Y127207D01*
X130538Y126748D01*
X131456D01*
X131915Y127207D01*
X132834D02*
X133293Y126748D01*
X134211D01*
X134670Y127207D01*
Y129044D01*
X134211Y129503D01*
X133293D01*
X132834Y129044D01*
Y128585D01*
X133293Y128126D01*
X134670D01*
X210268Y207514D02*
X210728Y207973D01*
Y208891D01*
X210268Y209350D01*
X208432D01*
X207972Y208891D01*
Y207973D01*
X208432Y207514D01*
X207972Y204759D02*
Y206595D01*
X209809Y204759D01*
X210268D01*
X210728Y205218D01*
Y206136D01*
X210268Y206595D01*
Y203840D02*
X210728Y203381D01*
Y202463D01*
X210268Y202004D01*
X209809D01*
X209350Y202463D01*
Y202922D01*
Y202463D01*
X208891Y202004D01*
X208432D01*
X207972Y202463D01*
Y203381D01*
X208432Y203840D01*
X58076Y160278D02*
X58535Y160738D01*
Y161656D01*
X58076Y162115D01*
X56240D01*
X55781Y161656D01*
Y160738D01*
X56240Y160278D01*
X55781Y159360D02*
Y158442D01*
Y158901D01*
X58535D01*
X58076Y159360D01*
X55781Y157064D02*
Y156146D01*
Y156605D01*
X58535D01*
X58076Y157064D01*
X51670Y160171D02*
X52129Y160630D01*
Y161549D01*
X51670Y162008D01*
X49833D01*
X49374Y161549D01*
Y160630D01*
X49833Y160171D01*
X49374Y159253D02*
Y158335D01*
Y158794D01*
X52129D01*
X51670Y159253D01*
X49374Y155120D02*
Y156957D01*
X51211Y155120D01*
X51670D01*
X52129Y155579D01*
Y156498D01*
X51670Y156957D01*
X114970Y155353D02*
X114511Y154894D01*
Y153976D01*
X114970Y153517D01*
X116807D01*
X117266Y153976D01*
Y154894D01*
X116807Y155353D01*
X114511Y156272D02*
Y158108D01*
X114970D01*
X116807Y156272D01*
X117266D01*
X15683Y112540D02*
X16142Y112081D01*
X17061D01*
X17520Y112540D01*
Y114376D01*
X17061Y114836D01*
X16142D01*
X15683Y114376D01*
X14765Y114836D02*
X13846D01*
X14306D01*
Y112081D01*
X14765Y112540D01*
X12469D02*
X12010Y112081D01*
X11091D01*
X10632Y112540D01*
Y112999D01*
X11091Y113458D01*
X10632Y113917D01*
Y114376D01*
X11091Y114836D01*
X12010D01*
X12469Y114376D01*
Y113917D01*
X12010Y113458D01*
X12469Y112999D01*
Y112540D01*
X12010Y113458D02*
X11091D01*
X185506Y115354D02*
X188261Y117191D01*
X185506D02*
X188261Y115354D01*
Y119946D02*
Y118109D01*
X186424Y119946D01*
X185965D01*
X185506Y119487D01*
Y118569D01*
X185965Y118109D01*
X203575Y133900D02*
X204034Y134360D01*
Y135278D01*
X203575Y135737D01*
X201739D01*
X201279Y135278D01*
Y134360D01*
X201739Y133900D01*
X201279Y131146D02*
Y132982D01*
X203116Y131146D01*
X203575D01*
X204034Y131605D01*
Y132523D01*
X203575Y132982D01*
X201739Y130227D02*
X201279Y129768D01*
Y128850D01*
X201739Y128391D01*
X203575D01*
X204034Y128850D01*
Y129768D01*
X203575Y130227D01*
X203116D01*
X202657Y129768D01*
Y128391D01*
X197169Y133900D02*
X197628Y134360D01*
Y135278D01*
X197169Y135737D01*
X195332D01*
X194873Y135278D01*
Y134360D01*
X195332Y133900D01*
X197169Y132982D02*
X197628Y132523D01*
Y131605D01*
X197169Y131146D01*
X196710D01*
X196250Y131605D01*
Y132064D01*
Y131605D01*
X195791Y131146D01*
X195332D01*
X194873Y131605D01*
Y132523D01*
X195332Y132982D01*
X197169Y130227D02*
X197628Y129768D01*
Y128850D01*
X197169Y128391D01*
X195332D01*
X194873Y128850D01*
Y129768D01*
X195332Y130227D01*
X197169D01*
X217256Y207514D02*
X217715Y207973D01*
Y208891D01*
X217256Y209350D01*
X215419D01*
X214960Y208891D01*
Y207973D01*
X215419Y207514D01*
X214960Y204759D02*
Y206595D01*
X216796Y204759D01*
X217256D01*
X217715Y205218D01*
Y206136D01*
X217256Y206595D01*
X214960Y202004D02*
Y203840D01*
X216796Y202004D01*
X217256D01*
X217715Y202463D01*
Y203381D01*
X217256Y203840D01*
X32644Y24316D02*
X32185Y24776D01*
X31266D01*
X30807Y24316D01*
Y22480D01*
X31266Y22021D01*
X32185D01*
X32644Y22480D01*
X35399Y22021D02*
X33562D01*
X35399Y23857D01*
Y24316D01*
X34940Y24776D01*
X34021D01*
X33562Y24316D01*
X36317Y22021D02*
X37235D01*
X36776D01*
Y24776D01*
X36317Y24316D01*
X32644Y17910D02*
X32185Y18369D01*
X31266D01*
X30807Y17910D01*
Y16073D01*
X31266Y15614D01*
X32185D01*
X32644Y16073D01*
X35399Y15614D02*
X33562D01*
X35399Y17451D01*
Y17910D01*
X34940Y18369D01*
X34021D01*
X33562Y17910D01*
X36317D02*
X36776Y18369D01*
X37695D01*
X38154Y17910D01*
Y16073D01*
X37695Y15614D01*
X36776D01*
X36317Y16073D01*
Y17910D01*
X32644Y11503D02*
X32185Y11963D01*
X31266D01*
X30807Y11503D01*
Y9667D01*
X31266Y9208D01*
X32185D01*
X32644Y9667D01*
X33562Y9208D02*
X34480D01*
X34021D01*
Y11963D01*
X33562Y11503D01*
X35858Y9667D02*
X36317Y9208D01*
X37235D01*
X37695Y9667D01*
Y11503D01*
X37235Y11963D01*
X36317D01*
X35858Y11503D01*
Y11044D01*
X36317Y10585D01*
X37695D01*
X238649Y37270D02*
X238190Y36811D01*
Y35892D01*
X238649Y35433D01*
X240486D01*
X240945Y35892D01*
Y36811D01*
X240486Y37270D01*
X240945Y38188D02*
Y39106D01*
Y38647D01*
X238190D01*
X238649Y38188D01*
X253681Y37270D02*
X253222Y36811D01*
Y35892D01*
X253681Y35433D01*
X255518D01*
X255977Y35892D01*
Y36811D01*
X255518Y37270D01*
X253222Y40025D02*
Y38188D01*
X254600D01*
X254141Y39107D01*
Y39566D01*
X254600Y40025D01*
X255518D01*
X255977Y39566D01*
Y38647D01*
X255518Y38188D01*
X260088Y37270D02*
X259629Y36811D01*
Y35892D01*
X260088Y35433D01*
X261925D01*
X262384Y35892D01*
Y36811D01*
X261925Y37270D01*
X262384Y39566D02*
X259629D01*
X261006Y38188D01*
Y40025D01*
X266494Y37270D02*
X266035Y36811D01*
Y35892D01*
X266494Y35433D01*
X268331D01*
X268790Y35892D01*
Y36811D01*
X268331Y37270D01*
X266035Y40025D02*
X266494Y39107D01*
X267413Y38188D01*
X268331D01*
X268790Y38647D01*
Y39566D01*
X268331Y40025D01*
X267872D01*
X267413Y39566D01*
Y38188D01*
X339721Y77910D02*
Y80665D01*
X338344D01*
X337885Y80206D01*
Y78369D01*
X338344Y77910D01*
X339721D01*
X336966Y78369D02*
X336507Y77910D01*
X335589D01*
X335130Y78369D01*
Y78829D01*
X335589Y79288D01*
X335130Y79747D01*
Y80206D01*
X335589Y80665D01*
X336507D01*
X336966Y80206D01*
Y79747D01*
X336507Y79288D01*
X336966Y78829D01*
Y78369D01*
X336507Y79288D02*
X335589D01*
X309744Y61590D02*
Y58835D01*
X308367D01*
X307908Y59294D01*
Y61130D01*
X308367Y61590D01*
X309744D01*
X306989D02*
X305153D01*
Y61130D01*
X306989Y59294D01*
Y58835D01*
X320014Y97055D02*
X320473Y97514D01*
X321391D01*
X321850Y97055D01*
Y95218D01*
X321391Y94759D01*
X320473D01*
X320014Y95218D01*
X317718Y94759D02*
Y97514D01*
X319095Y96137D01*
X317259D01*
X316340Y94759D02*
X315422D01*
X315881D01*
Y97514D01*
X316340Y97055D01*
X366386Y71927D02*
X366846Y71468D01*
Y70550D01*
X366386Y70091D01*
X364550D01*
X364090Y70550D01*
Y71468D01*
X364550Y71927D01*
X366386Y72846D02*
X366846Y73305D01*
Y74223D01*
X366386Y74682D01*
X365927D01*
X365468Y74223D01*
Y73764D01*
Y74223D01*
X365009Y74682D01*
X364550D01*
X364090Y74223D01*
Y73305D01*
X364550Y72846D01*
X364090Y76978D02*
X366846D01*
X365468Y75601D01*
Y77437D01*
X356934Y59809D02*
X357394Y59350D01*
Y58432D01*
X356934Y57972D01*
X355098D01*
X354639Y58432D01*
Y59350D01*
X355098Y59809D01*
X354639Y62105D02*
X357394D01*
X356016Y60727D01*
Y62564D01*
X354639Y65319D02*
Y63482D01*
X356475Y65319D01*
X356934D01*
X357394Y64860D01*
Y63942D01*
X356934Y63482D01*
X312442Y41010D02*
X312902Y40551D01*
Y39632D01*
X312442Y39173D01*
X310606D01*
X310147Y39632D01*
Y40551D01*
X310606Y41010D01*
X312442Y41928D02*
X312902Y42387D01*
Y43306D01*
X312442Y43765D01*
X311983D01*
X311524Y43306D01*
Y42847D01*
Y43306D01*
X311065Y43765D01*
X310606D01*
X310147Y43306D01*
Y42387D01*
X310606Y41928D01*
X312442Y44683D02*
X312902Y45142D01*
Y46061D01*
X312442Y46520D01*
X311983D01*
X311524Y46061D01*
X311065Y46520D01*
X310606D01*
X310147Y46061D01*
Y45142D01*
X310606Y44683D01*
X311065D01*
X311524Y45142D01*
X311983Y44683D01*
X312442D01*
X311524Y45142D02*
Y46061D01*
X318849Y41010D02*
X319308Y40551D01*
Y39632D01*
X318849Y39173D01*
X317012D01*
X316553Y39632D01*
Y40551D01*
X317012Y41010D01*
X318849Y41928D02*
X319308Y42387D01*
Y43306D01*
X318849Y43765D01*
X318390D01*
X317931Y43306D01*
Y42847D01*
Y43306D01*
X317472Y43765D01*
X317012D01*
X316553Y43306D01*
Y42387D01*
X317012Y41928D01*
X319308Y44683D02*
Y46520D01*
X318849D01*
X317012Y44683D01*
X316553D01*
X325255Y41010D02*
X325715Y40551D01*
Y39632D01*
X325255Y39173D01*
X323419D01*
X322960Y39632D01*
Y40551D01*
X323419Y41010D01*
X325255Y41928D02*
X325715Y42387D01*
Y43306D01*
X325255Y43765D01*
X324796D01*
X324337Y43306D01*
Y42847D01*
Y43306D01*
X323878Y43765D01*
X323419D01*
X322960Y43306D01*
Y42387D01*
X323419Y41928D01*
X325715Y46520D02*
X325255Y45602D01*
X324337Y44683D01*
X323419D01*
X322960Y45142D01*
Y46061D01*
X323419Y46520D01*
X323878D01*
X324337Y46061D01*
Y44683D01*
X315386Y23982D02*
X315846Y23523D01*
Y22605D01*
X315386Y22146D01*
X313550D01*
X313090Y22605D01*
Y23523D01*
X313550Y23982D01*
X313090Y26278D02*
X315846D01*
X314468Y24901D01*
Y26737D01*
X315846Y27656D02*
Y29492D01*
X315386D01*
X313550Y27656D01*
X313090D01*
X314337Y17774D02*
X313878Y17314D01*
X312959D01*
X312500Y17774D01*
Y19610D01*
X312959Y20069D01*
X313878D01*
X314337Y19610D01*
X316633Y20069D02*
Y17314D01*
X315255Y18692D01*
X317092D01*
X319847Y17314D02*
X318928Y17774D01*
X318010Y18692D01*
Y19610D01*
X318469Y20069D01*
X319388D01*
X319847Y19610D01*
Y19151D01*
X319388Y18692D01*
X318010D01*
X334090Y36909D02*
Y33761D01*
X335665D01*
X336190Y34286D01*
Y35335D01*
X335665Y35860D01*
X334090D01*
X335140D02*
X336190Y36909D01*
X337239Y33761D02*
X339338D01*
X338289D01*
Y36909D01*
X340388D02*
X341437D01*
X340913D01*
Y33761D01*
X340388Y34286D01*
D18*
X327440Y104325D02*
X326440Y105325D01*
X324441D01*
X323441Y104325D01*
Y103325D01*
X324441Y102326D01*
X326440D01*
X327440Y101326D01*
Y100326D01*
X326440Y99327D01*
X324441D01*
X323441Y100326D01*
X329439Y99327D02*
X331438D01*
X330439D01*
Y105325D01*
X329439Y104325D01*
X48396Y50884D02*
X53394D01*
X54394Y51884D01*
Y53883D01*
X53394Y54883D01*
X48396D01*
Y60881D02*
X49395Y58881D01*
X51395Y56882D01*
X53394D01*
X54394Y57882D01*
Y59881D01*
X53394Y60881D01*
X52394D01*
X51395Y59881D01*
Y56882D01*
X271182Y374892D02*
X273182D01*
X272182D01*
Y379890D01*
X273182Y380890D01*
X274181D01*
X275181Y379890D01*
X269183Y375891D02*
X268183Y374892D01*
X266184D01*
X265184Y375891D01*
Y376891D01*
X266184Y377891D01*
X267184D01*
X266184D01*
X265184Y378890D01*
Y379890D01*
X266184Y380890D01*
X268183D01*
X269183Y379890D01*
X219115Y374892D02*
X221115D01*
X220115D01*
Y379890D01*
X221115Y380890D01*
X222114D01*
X223114Y379890D01*
X213117Y380890D02*
X217116D01*
X213117Y376891D01*
Y375891D01*
X214117Y374892D01*
X216116D01*
X217116Y375891D01*
X279537Y40671D02*
Y42670D01*
Y41670D01*
X274539D01*
X273539Y42670D01*
Y43670D01*
X274539Y44669D01*
X279537Y38671D02*
Y34672D01*
X278538D01*
X274539Y38671D01*
X273539D01*
X159931Y21140D02*
Y19141D01*
Y20141D01*
X164929D01*
X165929Y19141D01*
Y18141D01*
X164929Y17142D01*
X159931Y27139D02*
Y23140D01*
X162930D01*
X161930Y25139D01*
Y26139D01*
X162930Y27139D01*
X164929D01*
X165929Y26139D01*
Y24139D01*
X164929Y23140D01*
X204058Y179986D02*
X208056Y173988D01*
Y179986D02*
X204058Y173988D01*
X210055D02*
X212055D01*
X211055D01*
Y179986D01*
X210055Y178987D01*
X17564Y144063D02*
X13322Y139822D01*
X15443Y137701D01*
X16857D01*
X17564Y138408D01*
Y139822D01*
X15443Y141942D01*
X17564Y139822D01*
X18978D01*
X19684Y140529D01*
Y141942D01*
X17564Y144063D01*
X21805Y139822D02*
X24633Y136994D01*
X23926Y136287D01*
X18271Y136287D01*
X17564Y135581D01*
X20391Y132753D01*
X21805Y131339D02*
X23219Y129926D01*
X22512Y130632D01*
X26753Y134874D01*
X25339D01*
X68181Y140075D02*
X74179D01*
Y143074D01*
X73179Y144074D01*
X69181D01*
X68181Y143074D01*
Y140075D01*
Y150072D02*
Y146073D01*
X71180D01*
X70180Y148072D01*
Y149072D01*
X71180Y150072D01*
X73179D01*
X74179Y149072D01*
Y147073D01*
X73179Y146073D01*
X97158Y178531D02*
X98158Y177531D01*
X100157D01*
X101156Y178531D01*
Y182530D01*
X100157Y183529D01*
X98158D01*
X97158Y182530D01*
X95158Y183529D02*
X93159D01*
X94159D01*
Y177531D01*
X95158Y178531D01*
X90160D02*
X89160Y177531D01*
X87161D01*
X86161Y178531D01*
Y179531D01*
X87161Y180531D01*
X88161D01*
X87161D01*
X86161Y181530D01*
Y182530D01*
X87161Y183529D01*
X89160D01*
X90160Y182530D01*
X98893Y150366D02*
Y155365D01*
X97893Y156364D01*
X95894D01*
X94894Y155365D01*
Y150366D01*
X88896Y156364D02*
X92895D01*
X88896Y152366D01*
Y151366D01*
X89896Y150366D01*
X91895D01*
X92895Y151366D01*
X125910Y158448D02*
Y153449D01*
X126910Y152450D01*
X128910D01*
X129909Y153449D01*
Y158448D01*
X131909Y152450D02*
X133908D01*
X132908D01*
Y158448D01*
X131909Y157448D01*
X163755Y111588D02*
X165169D01*
X166583Y113001D01*
Y114415D01*
X163755Y117243D01*
X162341D01*
X160927Y115829D01*
Y114415D01*
X155979Y110881D02*
X158807Y113708D01*
Y108053D01*
X159514Y107346D01*
X160927D01*
X162341Y108760D01*
Y110174D01*
X158100Y105932D02*
Y104519D01*
X156686Y103105D01*
X155272D01*
X154566Y103812D01*
Y105226D01*
X153152D01*
X152445Y105932D01*
Y107346D01*
X153859Y108760D01*
X155272D01*
X155979Y108053D01*
Y106639D01*
X157393D01*
X158100Y105932D01*
X155979Y106639D02*
X154566Y105226D01*
X196446Y117431D02*
Y112433D01*
X197446Y111433D01*
X199445D01*
X200445Y112433D01*
Y117431D01*
X206443D02*
X202444D01*
Y114432D01*
X204443Y115432D01*
X205443D01*
X206443Y114432D01*
Y112433D01*
X205443Y111433D01*
X203444D01*
X202444Y112433D01*
X249751Y159427D02*
X244753D01*
X243753Y158428D01*
Y156429D01*
X244753Y155429D01*
X249751D01*
X243753Y150430D02*
X249751D01*
X246752Y153429D01*
Y149431D01*
X239681Y133367D02*
Y128369D01*
X240681Y127369D01*
X242680D01*
X243680Y128369D01*
Y133367D01*
X245679D02*
X249678D01*
Y132367D01*
X245679Y128369D01*
Y127369D01*
X271545Y220353D02*
Y218354D01*
Y219353D01*
X276544D01*
X277543Y218354D01*
Y217354D01*
X276544Y216354D01*
X271545Y226351D02*
X272545Y224352D01*
X274544Y222352D01*
X276544D01*
X277543Y223352D01*
Y225351D01*
X276544Y226351D01*
X275544D01*
X274544Y225351D01*
Y222352D01*
X259925Y301582D02*
X253927D01*
Y304581D01*
X254927Y305580D01*
X256926D01*
X257926Y304581D01*
Y301582D01*
Y303581D02*
X259925Y305580D01*
X253927Y307580D02*
X259925D01*
Y311578D01*
Y317577D02*
Y313578D01*
X255926Y317577D01*
X254927D01*
X253927Y316577D01*
Y314578D01*
X254927Y313578D01*
X207858Y301582D02*
X201860D01*
Y304581D01*
X202860Y305580D01*
X204859D01*
X205859Y304581D01*
Y301582D01*
Y303581D02*
X207858Y305580D01*
X201860Y307580D02*
X207858D01*
Y311578D01*
Y313578D02*
Y315577D01*
Y314578D01*
X201860D01*
X202860Y313578D01*
X83677Y299017D02*
X87676D01*
X85676D01*
Y293019D01*
X89675D02*
X91675D01*
X90675D01*
Y299017D01*
X89675Y298017D01*
X90764Y368323D02*
Y374321D01*
X93763D01*
X94762Y373321D01*
Y371322D01*
X93763Y370322D01*
X90764D01*
X92763D02*
X94762Y368323D01*
X96762D02*
X98761D01*
X97761D01*
Y374321D01*
X96762Y373321D01*
X20778Y379017D02*
Y381016D01*
Y380017D01*
X15779D01*
X14780Y381016D01*
Y382016D01*
X15779Y383016D01*
X14780Y377018D02*
Y375018D01*
Y376018D01*
X20778D01*
X19778Y377018D01*
X33190Y323382D02*
X34190Y322383D01*
X36189D01*
X37189Y323382D01*
Y327381D01*
X36189Y328381D01*
X34190D01*
X33190Y327381D01*
X31191Y323382D02*
X30191Y322383D01*
X28192D01*
X27192Y323382D01*
Y324382D01*
X28192Y325382D01*
X29192D01*
X28192D01*
X27192Y326381D01*
Y327381D01*
X28192Y328381D01*
X30191D01*
X31191Y327381D01*
X33190Y280222D02*
X34190Y279222D01*
X36189D01*
X37189Y280222D01*
Y284221D01*
X36189Y285221D01*
X34190D01*
X33190Y284221D01*
X27192Y285221D02*
X31191D01*
X27192Y281222D01*
Y280222D01*
X28192Y279222D01*
X30191D01*
X31191Y280222D01*
X17356Y203831D02*
X15357D01*
X16356D01*
Y198832D01*
X15357Y197833D01*
X14357D01*
X13357Y198832D01*
X22354Y197833D02*
Y203831D01*
X19355Y200832D01*
X23354D01*
X87962Y10624D02*
X86963Y11624D01*
X84963D01*
X83964Y10624D01*
Y9625D01*
X84963Y8625D01*
X86963D01*
X87962Y7625D01*
Y6626D01*
X86963Y5626D01*
X84963D01*
X83964Y6626D01*
X89962Y11624D02*
Y5626D01*
X91961Y7625D01*
X93960Y5626D01*
Y11624D01*
X95960Y5626D02*
X97959D01*
X96959D01*
Y11624D01*
X95960Y10624D01*
X207201Y18514D02*
Y13516D01*
X208201Y12516D01*
X210200D01*
X211199Y13516D01*
Y18514D01*
X217198Y17514D02*
X216198Y18514D01*
X214199D01*
X213199Y17514D01*
Y16514D01*
X214199Y15515D01*
X216198D01*
X217198Y14515D01*
Y13516D01*
X216198Y12516D01*
X214199D01*
X213199Y13516D01*
X219197Y18514D02*
Y12516D01*
X222196D01*
X223196Y13516D01*
Y14515D01*
X222196Y15515D01*
X219197D01*
X222196D01*
X223196Y16514D01*
Y17514D01*
X222196Y18514D01*
X219197D01*
X225195Y12516D02*
X227194D01*
X226195D01*
Y18514D01*
X225195Y17514D01*
X299400Y44903D02*
Y46902D01*
Y45902D01*
X304398D01*
X305398Y46902D01*
Y47902D01*
X304398Y48902D01*
X300399Y42904D02*
X299400Y41904D01*
Y39904D01*
X300399Y38905D01*
X301399D01*
X302399Y39904D01*
X303398Y38905D01*
X304398D01*
X305398Y39904D01*
Y41904D01*
X304398Y42904D01*
X303398D01*
X302399Y41904D01*
X301399Y42904D01*
X300399D01*
X302399Y41904D02*
Y39904D01*
X332268Y74321D02*
Y69323D01*
X331268Y68323D01*
X329269D01*
X328269Y69323D01*
Y74321D01*
X326270Y73321D02*
X325270Y74321D01*
X323271D01*
X322271Y73321D01*
Y72322D01*
X323271Y71322D01*
X322271Y70322D01*
Y69323D01*
X323271Y68323D01*
X325270D01*
X326270Y69323D01*
Y70322D01*
X325270Y71322D01*
X326270Y72322D01*
Y73321D01*
X325270Y71322D02*
X323271D01*
D20*
X221730Y46378D02*
X217139D01*
X216220Y45460D01*
Y43623D01*
X217139Y42705D01*
X221730D01*
X220812Y40868D02*
X221730Y39950D01*
Y38113D01*
X220812Y37195D01*
X219894D01*
X218975Y38113D01*
Y39031D01*
Y38113D01*
X218057Y37195D01*
X217139D01*
X216220Y38113D01*
Y39950D01*
X217139Y40868D01*
D21*
X292500Y137500D02*
X293500D01*
X295000D02*
X375000D01*
X290000Y-2500D02*
X375000D01*
Y137500D01*
X0Y-2500D02*
X290000D01*
X0D02*
Y395000D01*
X293500D01*
D22*
X292500Y115500D02*
Y137500D01*
Y55500D02*
Y78000D01*
Y83000D02*
Y88000D01*
Y93000D02*
Y98000D01*
Y103000D02*
Y108000D01*
Y45500D02*
Y50500D01*
Y35500D02*
Y40500D01*
Y25500D02*
Y30500D01*
Y-2000D02*
Y20500D01*
D23*
X293500Y395000D02*
X293500Y137500D01*
D49*
X343701Y11408D02*
D03*
Y18888D02*
D03*
X333465D02*
D03*
Y15148D02*
D03*
Y11408D02*
D03*
D66*
X162992Y14665D02*
D03*
X10881Y200770D02*
D03*
D74*
X308358Y67000D02*
D03*
X302058D02*
D03*
X308358Y76370D02*
D03*
X302058D02*
D03*
X314173Y91305D02*
D03*
X320473D02*
D03*
X357087Y51441D02*
D03*
X350787D02*
D03*
X333661Y23523D02*
D03*
X339961D02*
D03*
X343504Y6716D02*
D03*
X337204D02*
D03*
D75*
X301083Y61000D02*
D03*
X308563D02*
D03*
X313189Y96925D02*
D03*
X320669D02*
D03*
X321161Y17904D02*
D03*
X313681D02*
D03*
D80*
X312312Y47835D02*
D03*
Y40354D02*
D03*
X318719Y47835D02*
D03*
Y40354D02*
D03*
X325125Y47835D02*
D03*
Y40354D02*
D03*
X315256Y30807D02*
D03*
Y23327D02*
D03*
D83*
X296448Y61050D02*
D03*
Y67350D02*
D03*
X303863Y87895D02*
D03*
Y81595D02*
D03*
X308695D02*
D03*
Y87895D02*
D03*
X350295Y62966D02*
D03*
Y56666D02*
D03*
X345374Y74884D02*
D03*
Y68584D02*
D03*
X350206Y74884D02*
D03*
Y68584D02*
D03*
X340518Y86803D02*
D03*
Y80502D02*
D03*
X345374Y86803D02*
D03*
Y80502D02*
D03*
X350206Y80511D02*
D03*
Y86811D02*
D03*
X340542Y59647D02*
D03*
Y53347D02*
D03*
X345374Y62966D02*
D03*
Y56666D02*
D03*
X320875Y30217D02*
D03*
Y23917D02*
D03*
X325895Y30217D02*
D03*
Y23917D02*
D03*
X325796Y18298D02*
D03*
Y11998D02*
D03*
D105*
X308600Y87895D02*
Y92540D01*
X300000Y88000D02*
X300106Y87895D01*
X296448Y84448D02*
X300000Y88000D01*
X300106Y87895D02*
X303863D01*
X296448Y67750D02*
X296498Y67700D01*
Y67463D02*
Y67700D01*
X296448Y67750D02*
Y84448D01*
X333959Y59647D02*
X335079D01*
X327400Y66206D02*
X333959Y59647D01*
X329157Y92330D02*
X337310D01*
X327400Y90573D02*
X329157Y92330D01*
X335079Y59647D02*
X340542D01*
X327400Y66206D02*
Y90573D01*
X337310Y92330D02*
X341732Y96752D01*
X350345Y62900D02*
X361294D01*
X350295Y62950D02*
Y62966D01*
Y62950D02*
X350345Y62900D01*
X361294D02*
X363900Y65506D01*
Y88757D01*
X341732Y110925D02*
X363900Y88757D01*
X344624Y29930D02*
X351170D01*
X308563Y61000D02*
X308697Y60866D01*
X339961Y23523D02*
X347267D01*
X329899Y6716D02*
X337204D01*
X343504D02*
X350810D01*
X325125Y47835D02*
X338165D01*
X344624Y41376D01*
Y29930D02*
Y41376D01*
X333207Y19146D02*
X333465Y18888D01*
X333207Y19146D02*
Y29930D01*
D106*
X283649Y161507D02*
G03*
X285122Y162979I0J1473D01*
G01*
X283090Y161507D02*
G03*
X283090Y159234I0J-1136D01*
G01*
X285122Y157761D02*
G03*
X283649Y159234I-1473J0D01*
G01*
X287595Y171614D02*
X287677Y171697D01*
X285039Y172047D02*
X285122Y171965D01*
Y165686D02*
Y171965D01*
X287677Y171697D02*
Y172047D01*
X287595Y127633D02*
Y171614D01*
X285122Y162979D02*
Y165686D01*
X283090Y161507D02*
X283649D01*
X283090Y159234D02*
X283649D01*
X285122Y157025D02*
Y157761D01*
Y128657D02*
Y157025D01*
X217524Y57563D02*
X287595Y127633D01*
X216500Y60036D02*
X285122Y128657D01*
X213862Y57563D02*
X217524D01*
X213779Y57480D02*
X213862Y57563D01*
X214213Y60036D02*
X216500D01*
X213779Y60118D02*
X214130D01*
X214213Y60036D01*
D107*
X337205Y11408D02*
X343404Y17607D01*
X343585Y18888D02*
X343701D01*
X333465Y11408D02*
X337205D01*
X343404Y17607D02*
Y18707D01*
X343585Y18888D01*
X338555Y17973D02*
Y19493D01*
X335730Y15148D02*
X338555Y17973D01*
Y19493D02*
X339961Y20899D01*
Y23523D01*
X333465Y15148D02*
X335730D01*
D108*
X166754Y52006D02*
G03*
X167151Y52384I-4549J5179D01*
G01*
X125000Y76000D02*
X131000Y82000D01*
X193000D01*
X54685Y106179D02*
X97179D01*
X142500Y151500D01*
X199500D01*
X96315Y108315D02*
X142500Y154500D01*
X207000D01*
X49685Y108315D02*
X96315D01*
X193000Y82000D02*
X244783Y133783D01*
X221750Y126250D02*
X230750Y135250D01*
X246636Y151136D01*
X208500Y113000D02*
X221750Y126250D01*
X246636Y151136D02*
Y187000D01*
X204000Y112000D02*
X244500Y152500D01*
Y189000D01*
X167151Y52384D02*
X240653Y127016D01*
X250136Y136499D01*
Y164780D01*
X244783Y133783D02*
Y137263D01*
X142267Y30500D02*
X166754Y52006D01*
X123000Y30500D02*
X142267D01*
D109*
X220000Y145000D02*
X221500Y143500D01*
X220000Y145000D02*
Y168963D01*
X227037Y176000D01*
X234500D01*
D110*
X299466Y54654D02*
X312921D01*
X296185Y51372D02*
X299466Y54654D01*
X312921D02*
X314134Y55866D01*
X296185Y29340D02*
Y51372D01*
X116000Y96000D02*
X147000Y127000D01*
X99500Y21500D02*
X116000Y38000D01*
Y96000D01*
X301411Y24114D02*
X302461D01*
X296185Y29340D02*
X301411Y24114D01*
X185682Y202336D02*
X270664D01*
X275009Y197991D01*
Y166009D02*
Y197991D01*
X116031Y132685D02*
X185682Y202336D01*
X64185Y132685D02*
X116031D01*
X83500Y21500D02*
X99500D01*
X70169Y8169D02*
X83500Y21500D01*
D111*
X325796Y11708D02*
Y11998D01*
Y11708D02*
X326096Y11408D01*
X333465D01*
D115*
X302461Y18209D02*
D03*
Y24114D02*
D03*
Y30020D02*
D03*
Y35925D02*
D03*
Y41831D02*
D03*
Y47736D02*
D03*
X276476Y13976D02*
D03*
Y19882D02*
D03*
Y25787D02*
D03*
Y31693D02*
D03*
Y37598D02*
D03*
Y43504D02*
D03*
D116*
X341732Y96752D02*
D03*
Y110925D02*
D03*
X327559D02*
D03*
D117*
X71437Y65701D02*
D03*
Y58476D02*
D03*
X67825Y69313D02*
D03*
Y62089D02*
D03*
Y54864D02*
D03*
X64213Y65701D02*
D03*
Y58476D02*
D03*
X60600Y69313D02*
D03*
Y62089D02*
D03*
Y54864D02*
D03*
X56988Y65701D02*
D03*
Y58476D02*
D03*
D118*
X250433Y372047D02*
D03*
X270433D02*
D03*
X198366D02*
D03*
X218366D02*
D03*
X23622Y358268D02*
D03*
Y378268D02*
D03*
D119*
X158661Y57185D02*
D03*
D120*
X162992Y32382D02*
D03*
X41196Y181872D02*
D03*
D121*
X181890Y44980D02*
D03*
X28597Y200770D02*
D03*
D122*
X29168Y143163D02*
D03*
X15249Y129243D02*
D03*
X164440Y111290D02*
D03*
X150521Y97371D02*
D03*
X92520Y256586D02*
D03*
X131890D02*
D03*
X72835Y335326D02*
D03*
X151575D02*
D03*
X169291Y372047D02*
D03*
X51181D02*
D03*
X33465Y322688D02*
D03*
X13780D02*
D03*
X33465Y279528D02*
D03*
X13780D02*
D03*
D123*
X242382Y286842D02*
D03*
Y326842D02*
D03*
X272382Y286842D02*
D03*
Y346842D02*
D03*
X242382Y356842D02*
D03*
X190315Y286842D02*
D03*
Y326842D02*
D03*
X220315Y286842D02*
D03*
Y346842D02*
D03*
X190315Y356842D02*
D03*
D124*
X53401Y205100D02*
D03*
D125*
X287677Y172047D02*
D03*
X285039D02*
D03*
X102000Y126000D02*
D03*
X259000Y271000D02*
D03*
X256500Y270500D02*
D03*
X313000Y47905D02*
D03*
X316000D02*
D03*
X311200Y99000D02*
D03*
X125000Y76000D02*
D03*
X210000Y187000D02*
D03*
X109000Y201000D02*
D03*
Y205000D02*
D03*
Y209000D02*
D03*
Y213000D02*
D03*
X144000Y181000D02*
D03*
X139000D02*
D03*
X134000D02*
D03*
X129000D02*
D03*
X125000Y127000D02*
D03*
X123510Y129490D02*
D03*
X122000Y127000D02*
D03*
X115000Y151000D02*
D03*
X110000D02*
D03*
X53452Y141460D02*
D03*
X27500Y107500D02*
D03*
X72500Y202500D02*
D03*
X75000Y200000D02*
D03*
Y205000D02*
D03*
X70000Y180000D02*
D03*
Y175000D02*
D03*
X60000Y180000D02*
D03*
X57500Y175000D02*
D03*
X62500D02*
D03*
X46000Y230000D02*
D03*
Y222000D02*
D03*
Y226000D02*
D03*
X198000Y22200D02*
D03*
Y26800D02*
D03*
Y31400D02*
D03*
Y36000D02*
D03*
Y40600D02*
D03*
Y45200D02*
D03*
X214469Y28016D02*
D03*
X238954Y32791D02*
D03*
X236488Y200000D02*
D03*
X186130Y106870D02*
D03*
X206500Y135000D02*
D03*
X215500Y143500D02*
D03*
X213500Y170500D02*
D03*
X216500Y197000D02*
D03*
X209000D02*
D03*
X211500D02*
D03*
X231211Y277738D02*
D03*
X217500Y213000D02*
D03*
X208500D02*
D03*
X215500Y173000D02*
D03*
X254500Y164500D02*
D03*
X272000Y146000D02*
D03*
X261500Y148000D02*
D03*
X282247Y191500D02*
D03*
X110369Y43525D02*
D03*
X63617Y24383D02*
D03*
X30000Y10000D02*
D03*
Y14000D02*
D03*
Y18000D02*
D03*
X300000Y88000D02*
D03*
X302000Y70500D02*
D03*
Y73000D02*
D03*
X308600Y92540D02*
D03*
X319500Y114000D02*
D03*
Y116000D02*
D03*
Y118000D02*
D03*
X309000Y99000D02*
D03*
X319619Y72881D02*
D03*
X331734Y54034D02*
D03*
X351170Y29930D02*
D03*
X344100Y51000D02*
D03*
X346500Y49600D02*
D03*
X346600Y52400D02*
D03*
X347267Y23523D02*
D03*
X329899Y6716D02*
D03*
X350810D02*
D03*
X311500Y17000D02*
D03*
Y20000D02*
D03*
Y23000D02*
D03*
X204000Y112000D02*
D03*
X208500Y113000D02*
D03*
X244783Y137263D02*
D03*
X244500Y189000D02*
D03*
X246636Y187000D02*
D03*
X250136Y164780D02*
D03*
X254851Y154125D02*
D03*
X259000Y141500D02*
D03*
X269200Y194326D02*
D03*
X102000Y129500D02*
D03*
X64185Y132685D02*
D03*
X102000Y135500D02*
D03*
X275009Y166009D02*
D03*
X222700Y164600D02*
D03*
X151500Y138500D02*
D03*
X54685Y106179D02*
D03*
X49685Y108315D02*
D03*
X170000Y73500D02*
D03*
X162500D02*
D03*
X166500D02*
D03*
X208000Y126500D02*
D03*
X221500Y143500D02*
D03*
X123000Y30500D02*
D03*
X43500Y12500D02*
D03*
X42500Y10000D02*
D03*
X44500D02*
D03*
X70169Y8169D02*
D03*
X214000Y197000D02*
D03*
X220866Y48291D02*
D03*
Y39039D02*
D03*
X263000Y213500D02*
D03*
X147000Y127000D02*
D03*
X151500D02*
D03*
Y131000D02*
D03*
X147000D02*
D03*
X151500Y134500D02*
D03*
X147000D02*
D03*
Y138500D02*
D03*
X233000Y48500D02*
D03*
X236000D02*
D03*
X239000D02*
D03*
X109000Y175500D02*
D03*
Y178500D02*
D03*
Y182000D02*
D03*
X57087Y151181D02*
D03*
X54331D02*
D03*
X51575D02*
D03*
X277165Y279134D02*
D03*
Y275590D02*
D03*
X185039Y275984D02*
D03*
Y279528D02*
D03*
X213862Y57563D02*
D03*
X213779Y60118D02*
D03*
D126*
X207000Y154500D02*
D03*
D03*
X199500Y151500D02*
D03*
D03*
X234500Y176000D02*
D03*
D03*
D162*
X314134Y55866D02*
D03*
Y60866D02*
D03*
Y65866D02*
D03*
Y70866D02*
D03*
Y75866D02*
D03*
Y80866D02*
D03*
Y85866D02*
D03*
X335079Y55866D02*
D03*
Y60866D02*
D03*
Y65866D02*
D03*
Y70866D02*
D03*
Y75866D02*
D03*
Y80866D02*
D03*
Y85866D02*
D03*
D163*
X356714Y85245D02*
D03*
Y73828D02*
D03*
X356804Y68602D02*
D03*
Y57185D02*
D03*
D164*
X344624Y29930D02*
D03*
X333207D02*
D03*
D165*
X208500Y213000D02*
X217500D01*
X231211Y226711D01*
Y277738D01*
M02*
